<svg width="341" height="250" viewBox="0 0 341 250" fill="none" xmlns="http://www.w3.org/2000/svg">
<g clip-path="url(#clip0_4101_856)">
<path d="M447.818 224.742H24.5125C34.0204 212.829 39.3117 208.113 48.3235 196.034C62.0478 177.585 86.1068 174.854 95.2012 179.487C104.296 184.12 112.067 190.822 120.831 196.034C149.355 212.911 187.221 197.275 213.925 180.48C237.571 165.588 245.756 188.34 256.587 177.336C282.299 151.276 326.779 175.103 336.7 184.948C370.598 218.703 435.807 173.365 453.5 196.034C464.413 210.181 447.818 224.742 447.818 224.742Z" fill="#F5F5F5"/>
<path d="M240.217 248.734C240.217 250.968 195.075 252.705 139.351 252.705C83.6265 252.705 38.4849 250.885 38.4849 248.734C38.4849 246.501 83.6265 244.763 139.351 244.763C195.075 244.763 240.217 246.583 240.217 248.734Z" fill="#F5F5F5"/>
<path d="M92.5556 156.405H180.11V161.617H92.5556V156.405Z" fill="white"/>
<path d="M180.11 156.405H226.161V161.617H180.11V156.405Z" fill="#F5F5F5"/>
<path d="M168.536 161.535H173.744V248.734H168.536V161.535Z" fill="white"/>
<path d="M173.827 161.535H182.343V248.734H173.827V161.535Z" fill="#F5F5F5"/>
<path d="M99.6658 161.535H104.874V246.914H99.6658V161.535Z" fill="white"/>
<path d="M104.874 161.535H113.39V246.914H104.874V161.535Z" fill="#F5F5F5"/>
<path d="M209.957 161.535H215.165V248.734H209.957V161.535Z" fill="white"/>
<path d="M215.165 161.535H223.681V248.734H215.165V161.535Z" fill="#F5F5F5"/>
<path d="M94.8705 248.321C94.7052 246.004 88.0083 244.101 79.658 244.101C71.3076 244.101 64.6108 246.004 64.4454 248.321H94.8705Z" fill="#DFDC01"/>
<path d="M83.2131 196.53V245.591C83.2131 246.418 75.9376 246.418 75.9376 245.591V196.53H83.2131Z" fill="white"/>
<path d="M79.658 196.53V246.17C81.4769 246.17 83.2958 245.921 83.2958 245.508V196.448H79.658V196.53Z" fill="#E1E5E2"/>
<path d="M67.3392 195.703C68.8274 198.268 73.788 200.253 79.658 200.253C85.5281 200.253 90.406 198.35 91.9769 195.703H67.3392ZM138.028 237.069V237.152C137.945 238.062 137.201 238.724 136.292 238.724H128.768C127.859 238.724 127.115 237.979 127.032 237.069L123.973 196.53C123.725 193.469 121.244 191.07 118.185 190.905L90.406 189.912L88.0084 182.135L91.3155 177.667L94.8706 172.869C94.8706 172.869 132.489 168.153 137.697 180.315C141.17 188.671 138.607 228.134 138.028 237.069Z" fill="#DFDC01"/>
<path d="M138.028 237.152C137.945 238.062 137.201 238.724 136.292 238.724H128.768C127.859 238.724 127.115 237.979 127.032 237.069L123.973 196.53C123.725 193.469 121.244 191.07 118.185 190.904L90.406 189.912L88.0084 182.135L91.3154 177.667C92.969 177.585 94.5398 177.502 96.1934 177.585C96.7721 177.585 97.3508 177.585 97.8469 177.833C99.0044 178.412 99.4178 179.818 100.245 180.811C101.485 182.218 103.634 182.466 105.453 182.218C107.355 182.052 109.174 181.556 111.075 181.887C112.977 182.218 114.548 183.459 116.449 184.12C118.433 184.782 120.583 184.782 122.65 185.03C124.717 185.279 126.949 185.941 128.189 187.678C130.587 190.739 128.685 195.455 130.339 199.012C131.083 200.584 132.406 201.742 133.15 203.314C135.63 208.196 131.827 214.235 133.398 219.364C133.811 220.771 134.638 222.012 134.638 223.501C134.721 224.907 134.059 226.231 133.811 227.638C133.15 230.781 134.307 234.173 136.705 236.242C137.118 236.573 137.532 236.821 138.028 237.152Z" fill="#C9C601"/>
<path d="M110.496 232.519C110.414 234.67 110.331 236.325 110.248 237.4C110.248 238.145 109.587 238.724 108.843 238.724H100.245C99.5005 238.724 98.8391 238.145 98.8391 237.4L95.532 196.53C95.3666 194.71 94.4572 193.221 93.1343 192.146H111.075C111.654 203.811 110.993 222.756 110.496 232.519Z" fill="#DFDC01"/>
<path d="M110.496 232.519C110.414 234.67 110.331 236.325 110.248 237.4C110.248 238.145 109.587 238.724 108.843 238.724H100.245C99.5005 238.724 98.8391 238.145 98.8391 237.4L95.532 196.53C95.3666 194.71 94.4572 193.221 93.1343 192.146H96.1934C96.9375 192.807 97.5162 193.552 97.7642 194.214C98.343 195.538 98.4257 197.192 99.5005 198.102C100.079 198.599 100.906 198.764 101.485 199.26C102.477 200.088 102.642 201.412 102.56 202.652C102.477 203.893 102.229 205.134 102.477 206.375C102.89 208.03 104.378 209.188 104.874 210.843C105.371 212.415 104.874 214.152 104.544 215.807C104.213 217.462 104.048 219.364 105.122 220.605C105.949 221.598 107.355 222.095 107.603 223.336C107.851 224.659 106.528 225.735 106.197 227.059C105.949 228.3 106.611 229.54 107.437 230.368C108.347 231.278 109.422 231.774 110.496 232.519Z" fill="#C9C601"/>
<path d="M137.118 148.215C137.118 148.215 154.729 144.905 157.374 153.592C157.705 154.502 157.209 156.24 153.571 152.434M137.118 154.089C137.118 154.089 145.882 157.067 150.016 154.337Z" fill="white"/>
<path d="M138.111 156.405C138.111 156.405 116.532 157.977 104.957 152.434C101.898 150.945 98.5083 147.884 95.4493 144.326C95.78 151.607 96.6895 157.646 96.3587 168.98C96.3587 170.387 96.2761 171.959 96.1934 173.531C95.4493 189.829 79.5753 187.761 79.5753 187.761C79.5753 187.761 52.7054 159.714 53.6148 135.226C53.9455 126.87 56.0124 121.575 58.7408 118.266C64.7762 110.82 74.036 113.053 74.036 113.053C84.8667 114.46 90.406 117.107 93.217 120.499C93.5477 120.913 93.8784 121.409 94.1265 121.823C96.1934 124.719 101.402 131.751 108.264 138.949C117.193 148.297 138.028 147.056 138.028 147.056C139.516 146.974 139.516 156.405 138.111 156.405Z" fill="white"/>
<path d="M96.4414 168.898C96.4414 170.304 96.3587 171.876 96.276 173.448C95.5319 189.746 79.658 187.678 79.658 187.678C79.658 187.678 52.788 159.632 53.6974 135.143C54.0281 126.787 56.0951 121.492 58.8234 118.183C59.8155 118.431 60.725 118.845 61.6344 119.341C63.7013 120.582 65.4376 122.568 65.7683 124.967C66.099 127.035 65.4376 129.021 65.1069 131.089C64.7761 133.157 64.8588 135.474 66.2643 136.88C68.1659 138.866 71.6383 138.452 73.6226 140.355C75.1934 141.927 75.1934 144.326 75.3588 146.56C75.6895 151.193 77.343 156.24 81.4769 158.391C83.3784 159.384 85.6934 159.714 87.0162 161.369C88.0083 162.61 88.2564 164.265 89.0831 165.588C90.4887 168.07 93.5477 168.732 96.4414 168.898Z" fill="#F5F5F5"/>
<path d="M116.201 195.868C113.638 195.951 107.603 196.199 100.245 196.365C88.1737 196.613 72.3824 196.696 62.1305 195.538C44.355 193.552 45.9258 174.193 45.9258 174.193C45.9258 174.193 44.4376 149.538 44.9337 142.672C44.9337 142.258 45.0164 141.762 45.099 141.348C46.0912 135.722 50.473 135.226 50.473 135.226C76.4336 132.992 79.0792 149.952 79.0792 149.952C79.0792 149.952 86.1895 176.095 89.9926 182.797C90.406 183.541 90.8194 184.286 91.2328 184.865C93.2997 188.092 96.8548 189.994 100.658 189.994H114.878C114.878 189.994 118.599 189.746 119.095 192.642V192.725C119.426 194.71 118.02 195.868 116.201 195.868Z" fill="white"/>
<path d="M100.327 196.448C88.2564 196.696 72.4651 196.778 62.2132 195.62C44.4377 193.635 46.0085 174.275 46.0085 174.275C46.0085 174.275 44.5203 149.621 45.0164 142.754C45.0164 142.258 45.0991 141.844 45.1817 141.431C46.1739 142.258 47.0006 143.333 47.4967 144.492C49.0676 148.297 48.0754 153.509 51.3825 155.991C54.2762 158.142 58.8234 156.653 61.6345 158.887C63.8667 160.624 64.0321 163.851 64.0321 166.747C64.1148 171.545 65.1069 177.254 69.4888 179.156C71.8864 180.232 74.9454 179.984 76.847 181.721C77.6738 182.548 78.1698 183.624 78.6659 184.7C80.2367 188.257 82.1383 192.311 85.8588 193.138C87.2643 193.469 88.7525 193.304 90.2406 193.304C93.8784 193.304 97.1855 194.545 100.327 196.448Z" fill="#F5F5F5"/>
<path d="M129.512 238.724L129.43 243.853C131.083 247.493 132.985 248.073 135.382 244.515L135.465 238.724H129.512Z" fill="white"/>
<path d="M134.886 242.529C134.886 242.033 135.3 241.619 135.878 241.619C136.292 241.619 136.622 241.868 136.788 242.281C137.201 243.522 138.193 244.432 139.433 244.846L143.733 246.335C144.559 246.583 145.138 247.411 145.138 248.321C145.138 248.486 145.055 248.569 144.89 248.569L127.445 248.486C127.28 248.486 127.197 248.403 127.197 248.238V245.839C127.197 245.839 127.28 242.86 129.677 242.281C129.677 242.281 130.835 244.763 133.233 244.598C134.638 244.35 134.886 242.529 134.886 242.529ZM101.567 238.724L101.485 243.688C103.138 247.328 105.04 247.907 107.437 244.35L107.52 238.724H101.567Z" fill="white"/>
<path d="M106.859 242.364C106.859 241.868 107.272 241.454 107.851 241.454C108.264 241.454 108.595 241.702 108.76 242.116C109.174 243.357 110.166 244.267 111.406 244.68L115.705 246.17C116.532 246.418 117.111 247.245 117.111 248.155C117.111 248.321 117.028 248.403 116.863 248.403L99.4178 248.321C99.2525 248.321 99.1698 248.238 99.1698 248.072V245.673C99.1698 245.673 99.2525 242.695 101.65 242.116C101.65 242.116 102.808 244.598 105.205 244.432C106.693 244.267 106.859 242.364 106.859 242.364ZM90.3234 102.629C90.2407 104.118 87.9257 102.381 87.9257 102.381L88.6698 98.9889C88.6698 98.9889 90.3234 101.14 90.3234 102.629Z" fill="white"/>
<path d="M81.6423 114.129L82.3037 108.751C82.3037 108.751 84.4533 109.082 87.1816 108.834C90.654 108.503 88.3391 93.5286 86.8509 91.9566C81.6423 86.4136 70.7289 91.3775 71.5557 98.1616C72.3824 104.946 71.473 111.895 71.225 112.722C70.9769 113.467 81.6423 114.129 81.6423 114.129Z" fill="white"/>
<path d="M87.0163 104.036C87.595 104.367 88.2564 104.532 88.9178 104.615ZM80.3194 101.719C79.9887 101.388 79.8234 100.892 79.8234 100.478C79.8234 100.313 79.906 99.9818 80.0714 99.8163M85.6107 98.1616C86.0241 97.8307 86.5202 97.6653 87.0163 97.5825Z" fill="white"/>
<path d="M171.677 154.337C171.677 155.495 172.587 156.405 173.744 156.405H201.772L204.417 152.351H173.662C172.587 152.269 171.677 153.179 171.677 154.337Z" fill="#F5F5F5"/>
<path d="M209.13 154.089V154.337C209.13 155.495 208.221 156.405 207.063 156.405H194C192.843 156.405 191.851 155.412 192.016 154.171C192.099 153.096 193.091 152.351 194.165 152.351H204.5L200.201 135.805C199.953 134.729 200.614 133.654 201.689 133.323C202.764 133.075 203.921 133.737 204.169 134.812L209.047 153.758L209.13 154.089Z" fill="white"/>
<path d="M180.028 136.963L183.996 152.268H204.5L200.449 136.963H180.028Z" fill="white"/>
<path d="M227.98 138.039H231.866C234.016 138.039 235.752 136.384 235.917 134.316L240.382 74.4174C240.547 72.1009 238.728 70.0326 236.331 70.0326H232.445C234.76 70.0326 236.661 72.0182 236.496 74.4174L232.032 134.316C231.866 136.384 230.13 138.039 227.98 138.039Z" fill="#C9C601"/>
<path d="M227.98 138.039H230.461C232.61 138.039 234.346 136.384 234.512 134.316L238.976 74.4174C239.142 72.1009 237.323 70.0326 234.925 70.0326H232.445C234.76 70.0326 236.661 72.0182 236.496 74.4174L232.032 134.316C231.866 136.384 230.13 138.039 227.98 138.039Z" fill="#EBE965"/>
<path d="M236.496 74.3347L236.331 76.8994L232.693 125.298H144.559L148.197 76.8994L148.445 73.7555C148.611 71.6045 150.347 70.0326 152.496 70.0326H232.528C234.843 70.0326 236.744 72.0182 236.496 74.3347Z" fill="white"/>
<path d="M232.693 125.298L232.197 132.247L232.032 134.233C231.866 136.384 230.13 137.956 227.98 137.956H147.949C145.551 137.956 143.733 135.97 143.898 133.571L143.981 132.165L144.477 125.215H232.693V125.298Z" fill="#F5F5F5"/>
<path d="M221.449 98.3271C221.283 102.464 217.811 105.773 213.677 105.773H172.091C166.799 105.773 162.666 101.554 162.914 96.2588C163.079 90.9639 167.544 86.7446 172.835 86.7446C173.827 86.7446 174.819 86.9101 175.729 87.1583V86.7446C175.977 80.2915 181.433 75.0793 187.882 75.0793C193.421 75.0793 197.886 78.8023 198.878 83.9317C200.614 82.0289 203.095 80.8706 205.74 80.8706C210.784 80.8706 214.669 84.9245 214.504 89.8884C214.504 90.2193 214.421 90.633 214.421 90.9639C218.472 90.9639 221.614 94.2732 221.449 98.3271Z" fill="#DFDC01"/>
<path d="M190.528 92.2877L190.362 96.4243H181.433L181.351 99.2372L174.406 94.356L181.681 89.5575L181.599 92.2877H190.528ZM193.173 92.2877L193.091 96.4243H202.02L201.937 99.2372L209.213 94.356L202.268 89.5575L202.185 92.2877H193.173Z" fill="#F5F5F5"/>
<path d="M191.768 131.668C191.685 133.075 190.528 134.233 189.122 134.233C187.717 134.233 186.642 133.075 186.725 131.668C186.807 130.262 187.965 129.103 189.37 129.103C190.693 129.103 191.851 130.262 191.768 131.668ZM158.614 111.73H150.512ZM181.516 111.73H161.921ZM227.319 111.73H184.079ZM170.355 116.032H149.933ZM194.992 116.032H172.752ZM226.74 116.032H197.142ZM158.697 120.334H149.272ZM181.185 120.334H161.177ZM226.74 120.334H183.583ZM69.4887 68.7089H64.6935L66.4297 76.6512C66.347 76.5685 55.847 68.7089 55.847 68.7089H26.4968C25.422 68.7089 24.5125 67.7989 24.5125 66.7233V28.3356C24.5125 27.26 25.422 26.35 26.4968 26.35H69.4887C70.5635 26.35 71.473 27.26 71.473 28.3356V66.7233C71.473 67.7989 70.5635 68.7089 69.4887 68.7089Z" fill="white"/>
<path d="M31.7881 45.8747V49.8459L34.7645 50.5077C35.0952 52.0797 35.7566 53.5688 36.5833 54.8926L34.9298 57.4573L37.7408 60.2702L40.3038 58.6155C41.6266 59.4428 43.1148 60.1047 44.6857 60.4356L45.3471 63.414H49.3156L49.977 60.4356C51.5479 60.1047 53.036 59.4428 54.3589 58.6155L56.9219 60.2702L59.7329 57.4573L58.0793 54.8926C58.9061 53.5688 59.5675 52.0797 59.8982 50.5077L62.8746 49.8459V45.8747L59.8982 45.2129C59.5675 43.641 58.9061 42.1518 58.0793 40.8281L59.7329 38.2634L56.9219 35.4505L54.3589 37.1051C53.036 36.1951 51.5479 35.6159 49.977 35.285L49.3156 32.3066H45.3471L44.6857 35.285C43.1148 35.6159 41.6266 36.2778 40.3038 37.1051L37.7408 35.4505L34.9298 38.2634L36.5833 40.8281C35.7566 42.1518 35.0952 43.641 34.7645 45.2129L31.7881 45.8747ZM40.1385 44.882C40.8825 42.8964 42.4534 41.3245 44.4377 40.5799C51.1345 38.0979 57.2526 44.3028 54.8549 51.0041C54.1108 52.9897 52.54 54.5616 50.5557 55.3062C43.8589 57.7882 37.6581 51.5005 40.1385 44.882Z" fill="#DFDC01"/>
<path d="M236.413 69.7017H152.496C150.264 69.7017 148.362 71.439 148.197 73.6728C148.197 73.7555 144.311 125.298 143.733 133.571C143.567 136.053 145.551 138.204 148.032 138.204H180.11L183.666 151.938H173.744C172.421 151.938 171.429 153.013 171.429 154.254C171.429 154.916 171.76 155.578 172.256 155.991H165.642V154.916C165.642 154.75 165.477 154.585 165.394 154.585H157.622C157.87 154.254 157.788 153.758 157.705 153.344C155.473 146.146 143.733 146.891 139.02 147.47C138.855 146.891 138.524 146.56 138.193 146.56C137.945 146.56 117.359 147.718 108.678 138.535C102.229 131.668 97.1028 124.967 94.6225 121.492V121.409C92.3902 117.686 88.3391 115.784 84.2052 114.543C84.1225 114.046 84.0399 113.467 83.7092 113.302C83.4611 113.136 82.9651 112.888 82.3037 112.722L82.717 108.999C83.3784 109.082 85.1973 109.248 87.3469 108.999C88.0084 108.917 88.5044 108.42 88.9178 107.51C89.3312 106.352 89.4965 104.532 89.4965 103.291C90.3233 103.539 90.7367 103.208 90.7367 102.464C90.8194 101.057 89.4965 99.1544 89.1658 98.658C89.0832 97.7479 88.9178 96.7551 88.7524 95.9278C90.4887 95.3487 91.9768 94.3559 92.0595 92.7012C92.1422 89.7229 91.3154 87.6546 89.4965 86.4963C84.7013 83.4352 74.8627 87.9855 73.6226 88.6473C71.3076 87.4891 69.4887 87.5718 68.4139 89.061C65.4376 92.8667 68.2486 104.946 69.8194 106.766C70.1501 107.179 70.8116 107.51 71.721 107.759C71.6383 109.082 71.473 110.24 71.3903 111.068C71.0596 111.068 70.8942 111.151 70.7289 111.151C70.2328 111.399 69.9848 111.73 69.8194 112.143C66.595 112.392 62.1305 113.55 58.7407 117.686C55.599 121.492 53.8628 127.201 53.5321 134.564C52.6227 134.564 51.6305 134.647 50.7211 134.729C48.3235 134.729 45.3471 137.459 44.9337 142.341C44.5203 147.966 45.6778 170.552 45.9258 173.613V173.862C45.2644 184.203 50.5557 194.214 62.3785 195.537C64.0321 195.703 65.7683 195.868 67.6698 196.034C69.0753 197.854 72.2171 199.26 75.9375 199.84V243.605C69.8194 244.101 64.4454 245.673 64.3628 247.99C64.3628 248.072 64.3628 248.155 64.4454 248.238C64.5281 248.321 64.6108 248.321 64.6935 248.321H95.1186C95.2012 248.321 95.2839 248.321 95.3666 248.238C95.4493 248.155 95.4493 248.072 95.4493 247.99C95.2839 245.839 90.5713 244.101 83.8745 243.605V199.84C87.2643 199.343 90.158 198.102 91.7288 196.53C93.0516 196.53 94.3745 196.53 95.6146 196.448L98.839 237.069C98.9217 237.648 99.2524 238.145 99.6658 238.476V243.274C99.4178 243.853 99.1697 244.68 99.1697 245.26V247.659C99.1697 247.99 99.4178 248.238 99.7485 248.238L117.193 248.321C117.359 248.321 117.441 248.238 117.607 248.155C117.689 248.072 117.772 247.907 117.772 247.742C117.772 246.749 117.111 245.839 116.201 245.508L114.134 244.763V195.868H114.382C114.382 195.868 116.449 195.786 116.697 195.786C118.681 195.703 120.17 194.379 119.922 192.394V192.311C119.839 191.732 119.591 191.235 119.343 190.904C121.906 191.318 123.89 193.469 124.138 196.117L127.197 236.655C127.28 237.731 128.189 238.558 129.264 238.558H129.76L129.677 241.619C128.107 242.198 127.28 244.019 127.28 245.342V247.742C127.28 247.907 127.363 248.072 127.445 248.155C127.528 248.238 127.693 248.321 127.859 248.321C130.339 248.321 141.004 248.403 145.303 248.403C145.469 248.403 145.551 248.321 145.717 248.238C145.799 248.155 145.882 247.99 145.882 247.824C145.882 246.831 145.221 245.921 144.311 245.591C144.229 245.591 139.681 244.019 140.012 244.101C138.855 243.688 137.945 242.86 137.532 241.702C137.366 241.206 136.87 240.875 136.374 240.875H136.292L136.374 238.558H136.87C137.945 238.558 138.855 237.731 138.937 236.655C139.103 231.195 142.327 188.753 138.524 179.736C135.796 173.365 124.634 171.462 114.3 171.214V161.452H168.949V248.321C168.949 248.486 169.114 248.652 169.28 248.652H183.004C183.169 248.652 183.252 248.486 183.252 248.321V161.452H210.37V248.321C210.37 248.486 210.535 248.652 210.618 248.652H224.343C224.508 248.652 224.673 248.486 224.673 248.321V161.452H226.823C226.988 161.452 227.154 161.369 227.154 161.204V155.991C227.154 155.826 226.988 155.743 226.823 155.743H209.295C209.791 155.33 210.122 154.668 210.122 154.006V153.675L206.071 137.956H232.61C234.842 137.956 236.744 136.218 236.909 133.902L241.374 74.0037C240.878 71.8527 238.894 69.7017 236.413 69.7017ZM89.9926 102.629C89.9926 102.712 89.9926 102.877 89.8272 102.96C89.7446 103.043 89.4965 102.96 89.2485 102.877C89.2485 101.967 89.1658 101.057 89.0832 100.147C89.5792 100.892 90.0753 101.885 89.9926 102.629ZM148.693 73.7555C148.859 71.77 150.512 70.2808 152.414 70.2808H232.445C234.594 70.2808 236.331 72.1009 236.165 74.3347L232.362 125.05H144.807V124.719C144.973 123.229 145.634 114.543 148.693 73.7555ZM180.689 138.287H200.532L203.343 149.207L204.087 152.02H184.244L180.689 138.287ZM172.008 154.337C172.008 153.344 172.752 152.599 173.744 152.599H192.595C192.181 153.013 191.851 153.509 191.768 154.089C191.685 154.75 191.933 155.412 192.347 155.909L192.512 156.074H173.744C172.752 156.074 172.008 155.33 172.008 154.337ZM157.126 153.675C157.209 154.006 157.209 154.42 157.044 154.502C157.044 154.502 156.713 154.668 155.886 154.089C155.39 153.84 154.233 152.682 153.819 152.268C153.736 152.186 153.571 152.186 153.406 152.268C153.323 152.351 153.323 152.599 153.406 152.682C154.067 153.344 154.729 153.923 155.225 154.337C154.481 154.916 153.571 154.585 152.827 153.923C152.496 153.592 152.083 153.261 151.504 152.351C151.422 152.186 151.256 152.186 151.091 152.268C150.925 152.351 150.925 152.517 151.008 152.682C151.422 153.344 151.835 153.84 152.248 154.254C151.504 155.66 150.264 154.502 149.355 153.013C149.272 152.848 149.107 152.848 148.941 152.93C148.776 153.013 148.776 153.179 148.859 153.344C149.107 153.758 149.272 154.089 149.52 154.337C146.874 155.909 142.244 155.247 139.268 154.502C139.516 152.765 139.516 150.035 139.103 148.297C143.733 147.635 155.059 146.974 157.126 153.675ZM155.803 154.75H155.555L155.638 154.668C155.721 154.668 155.721 154.668 155.803 154.75ZM152.91 154.75H152.496C152.579 154.668 152.579 154.585 152.662 154.502L152.91 154.75ZM149.933 154.75H149.768C149.851 154.668 149.851 154.668 149.933 154.75C149.933 154.668 149.933 154.668 149.933 154.75ZM72.0517 108.172C73.8706 108.586 76.1856 108.669 78.0045 108.172C78.9139 107.924 79.5753 107.014 79.5753 106.104C79.5753 104.284 78.8312 100.726 79.906 99.4025C80.154 99.1543 80.4848 98.9889 80.8981 98.9061C81.0635 98.9061 81.1462 98.9062 81.3115 99.0716C81.8903 99.6507 82.1383 101.554 82.1383 102.629C82.1383 102.712 82.1383 102.795 82.221 102.877C82.3037 102.96 82.3863 102.96 82.469 102.96H83.2131C83.2958 102.96 83.3785 102.96 83.4611 102.877C83.5438 102.795 83.5438 102.712 83.5438 102.629L83.4611 99.7335C84.2052 99.568 84.784 99.1544 84.9493 98.658C85.1973 98.0788 84.9493 97.4997 84.784 97.1688C85.4454 97.086 86.8509 96.9206 88.1737 96.5069C88.6698 98.9889 89.0005 101.885 88.9178 104.449C88.4217 104.366 87.9257 104.201 87.4296 103.953C87.2643 103.87 87.0989 103.953 87.0162 104.118C86.9336 104.284 87.0162 104.449 87.1816 104.532C87.7603 104.863 88.3391 105.028 88.9178 105.111C88.8351 106.187 88.6698 107.014 88.4217 107.676C88.1737 108.338 87.843 108.751 87.3469 108.751C84.7013 108.999 82.5517 108.669 82.5517 108.669C81.7249 108.586 80.9808 108.338 80.2367 108.007C80.0714 107.924 79.906 108.007 79.8233 108.172C79.7407 108.338 79.8233 108.503 79.906 108.586C80.6501 108.999 81.3942 109.165 82.1383 109.33L81.7249 112.971C78.9139 112.226 74.2013 111.647 71.8864 111.564C71.8864 110.489 71.969 109.413 72.0517 108.172ZM58.9888 118.348C62.2132 114.377 66.347 113.219 69.4887 112.971C69.4061 113.715 69.5714 114.46 69.5714 114.46C69.5714 114.543 69.7368 114.708 69.8194 114.708L83.7092 116.445C83.7918 116.445 83.8745 116.445 83.8745 116.363C83.9572 116.28 83.9572 116.28 83.9572 116.114V115.204C88.1737 116.528 91.0674 118.266 92.8863 120.417C93.217 120.83 93.5477 121.244 93.7957 121.658V121.74C96.276 125.215 101.402 131.999 107.933 138.949C116.863 148.297 137.697 147.139 137.945 147.139C138.028 147.139 138.111 147.305 138.193 147.553C138.937 149.456 138.689 155.578 137.945 155.909H137.863C137.78 155.909 131.579 156.322 124.138 155.909C118.02 155.578 110.331 154.585 104.874 151.938C102.146 150.697 98.9217 147.884 95.532 143.995L90.158 137.956L89.0005 136.632C88.9178 136.549 88.7524 136.467 88.5871 136.632C88.4217 136.798 88.4217 136.88 88.5871 137.046L89.7446 138.287L95.4493 150.2V150.448C95.9453 157.15 96.1934 162.114 96.028 168.898C95.9453 174.11 95.78 177.998 93.6304 181.473C93.6304 181.473 93.6304 181.556 93.5477 181.556C92.969 182.466 91.9768 183.707 91.0674 184.286C90.158 182.879 89.5792 181.804 88.9178 180.149C85.032 171.049 79.3273 150.2 79.3273 150.035C79.3273 149.869 76.5989 134.398 53.7801 134.895C54.2762 127.614 55.9297 122.071 58.9888 118.348ZM113.969 155.412V156.074H96.5241C96.5241 155.991 95.78 145.236 95.78 145.153C98.1776 147.884 101.567 151.11 104.792 152.682C107.437 153.923 110.662 154.833 113.969 155.412ZM94.4572 248.072H64.6935C65.2722 246.501 69.4887 245.011 75.6895 244.515V245.591C75.6895 246.252 77.0123 246.501 79.5753 246.501C82.1383 246.501 83.4611 246.17 83.4611 245.591V244.515C89.7446 245.011 93.8784 246.501 94.4572 248.072ZM76.2682 245.508V200.253C77.343 200.419 78.4178 200.501 79.5753 200.501C80.7328 200.501 81.8076 200.419 82.8824 200.253V245.508C82.6344 245.673 81.4769 245.921 79.5753 245.921C77.6737 245.921 76.5163 245.673 76.2682 245.508ZM79.5753 199.922C75.9375 199.922 70.7289 199.012 68.1659 196.448C76.5163 196.944 82.221 196.944 90.406 196.944C87.843 199.095 83.1304 199.922 79.5753 199.922ZM99.0871 237.4L95.8627 196.778C101.898 196.696 108.76 196.448 110.993 196.365C111.075 198.599 111.075 200.915 111.075 203.314C111.075 213.821 110.579 227.638 110.083 237.317C110.083 237.896 109.587 238.393 108.926 238.393H100.327C99.6658 238.476 99.1697 238.062 99.0871 237.4ZM111.489 196.365C112.067 196.365 112.563 196.282 113.059 196.282V245.011C112.233 244.598 109.835 244.515 109.008 242.033C108.843 241.537 108.347 241.206 107.851 241.206H107.768V239.055H108.843C109.752 239.055 110.496 238.31 110.579 237.4C111.158 225.735 111.819 208.196 111.489 196.365ZM107.272 239.055L107.189 241.371C107.107 241.454 107.024 241.454 106.941 241.537C106.693 241.785 106.611 242.033 106.611 242.364C106.445 243.605 105.784 244.267 104.544 244.101C102.808 243.936 101.898 242.033 101.898 242.033C101.898 241.95 101.815 241.95 101.815 241.95L101.898 239.137H107.272V239.055ZM101.237 239.055L101.154 241.95C100.575 242.116 100.162 242.447 99.9138 242.778V238.972H101.237V239.055ZM115.54 246.418C116.284 246.666 116.78 247.328 116.78 248.072H115.622L115.209 246.335L115.54 246.418ZM114.63 246.087L115.044 248.072L99.3351 247.99V247.162C105.453 247.245 103.882 247.162 112.894 247.245C113.059 247.245 113.142 247.08 113.142 246.914C113.142 246.749 112.977 246.666 112.894 246.666L101.319 246.583C101.65 245.508 100.989 244.267 99.8312 244.019V243.77C100.162 243.109 100.741 242.612 101.402 242.447C102.063 243.605 103.138 244.515 104.461 244.68C106.032 244.846 106.941 243.853 107.024 242.447C107.024 242.116 107.272 241.785 107.603 241.785H107.685C107.933 241.785 108.182 241.95 108.264 242.198C108.76 243.522 109.752 244.515 111.075 245.011C111.323 245.011 114.465 246.087 114.63 246.087ZM118.847 192.807V192.89C119.095 194.545 117.772 195.537 116.201 195.537C109.422 195.786 101.981 196.117 93.217 196.199C84.4533 196.199 71.473 196.365 62.2132 195.207C44.9337 193.221 46.2565 174.358 46.2565 174.11C46.2565 173.862 44.7683 149.373 45.2644 142.589C45.5951 137.873 48.4888 135.474 50.473 135.474C59.2368 134.647 68.91 136.053 74.8627 142.506C76.7643 144.657 78.8312 148.546 78.8312 149.952C78.9966 150.614 81.6422 160.211 84.5359 169.146C85.28 171.462 86.0241 173.696 86.7682 175.682C89.5792 183.293 92.6383 190.243 100.741 190.243H114.961C116.863 190.408 118.599 190.987 118.847 192.807ZM143.567 246.583C144.311 246.831 144.807 247.493 144.807 248.238H143.65L143.237 246.501L143.567 246.583ZM135.796 241.868C136.044 241.868 136.292 242.033 136.457 242.281C136.953 243.605 137.945 244.598 139.268 245.094L142.658 246.252L143.071 248.238L127.363 248.155V247.328C137.118 247.411 140.012 247.411 140.756 247.411H141.004C141.17 247.411 141.252 247.245 141.252 247.162C141.252 246.997 141.087 246.914 140.922 246.914C136.209 246.914 132.737 246.831 129.347 246.831C129.678 245.673 128.933 244.432 127.776 244.184C128.107 243.439 128.685 242.86 129.429 242.612C130.256 244.019 131.579 245.011 133.15 244.846C134.473 244.68 134.969 243.439 135.051 242.695V242.612C135.134 242.198 135.382 241.95 135.796 241.868ZM129.76 242.033L129.843 239.055H135.217L135.134 241.537C135.052 241.537 134.969 241.619 134.886 241.702C134.638 241.95 134.555 242.198 134.555 242.529C134.555 242.695 134.307 244.101 133.15 244.267C131 244.515 129.926 242.281 129.843 242.116C129.843 242.033 129.843 242.033 129.76 242.033ZM137.366 180.397C141.087 189.167 137.945 231.691 137.697 237.069C137.614 237.814 137.036 238.476 136.209 238.476H128.685C127.941 238.476 127.28 237.896 127.197 237.152L124.138 196.613C123.89 193.386 121.327 190.904 118.103 190.739C116.78 189.829 114.961 189.912 114.961 189.912H100.741C97.9296 189.912 95.1186 188.836 92.969 186.685C96.4414 183.624 97.1855 178.164 96.5241 173.613V173.034C107.024 171.876 133.233 170.635 137.366 180.397ZM96.7721 161.865H99.4178V172.124C98.343 172.207 97.4335 172.29 96.6894 172.372C96.7721 171.049 96.7721 169.973 96.7721 168.98V161.865ZM99.9138 172.041V161.865H104.544V171.793C102.89 171.793 101.319 171.959 99.9138 172.041ZM105.122 171.711V161.865H113.059V171.628C110.331 171.545 107.603 171.628 105.122 171.711ZM96.7721 161.286C96.7721 159.632 96.6894 158.142 96.6067 156.653H179.862V161.286H96.7721ZM173.496 248.486H168.866V161.865H173.496V248.486ZM182.012 248.486H174.075V161.865H182.012V248.486ZM214.917 248.486H210.287V161.865H214.917V248.486ZM223.433 248.486H215.496V161.865H223.433V248.486ZM225.913 156.653V161.286H180.441V156.653H225.913ZM208.717 153.675L208.799 154.089V154.254C208.799 155.247 207.973 155.991 207.063 155.991H194C193.504 155.991 193.008 155.743 192.677 155.412C192.347 154.999 192.181 154.585 192.264 154.089C192.347 153.179 193.173 152.517 194.083 152.517H204.417C204.5 152.517 204.583 152.517 204.665 152.434V152.186L201.028 138.287H204.583L208.717 153.675ZM147.949 137.708C145.717 137.708 144.063 135.887 144.229 133.654L144.807 125.546H232.362L231.701 134.15C231.535 136.136 229.882 137.625 227.98 137.625H147.949V137.708ZM235.587 134.233C235.421 136.218 233.768 137.708 231.866 137.708H230.13C231.205 137.128 232.197 135.722 232.28 134.316C232.776 127.366 236.744 74.5001 236.827 74.4174C236.992 72.5146 235.835 70.8599 234.677 70.2808H236.413C238.563 70.2808 240.299 72.1009 240.134 74.3347L235.587 134.233Z" fill="#2D2650"/>
<path d="M172.091 106.021H213.677C217.976 106.021 221.614 102.546 221.78 98.3271C221.945 94.1905 218.803 90.8812 214.752 90.633C214.752 90.3848 214.835 90.1366 214.835 89.8056C215 84.759 211.114 80.4569 205.823 80.4569C203.343 80.4569 200.862 81.4497 199.126 83.1871C197.803 78.1404 193.256 74.6656 187.965 74.6656C181.351 74.6656 175.729 80.0432 175.48 86.5791V86.6618C174.654 86.4136 173.744 86.3309 172.918 86.3309C167.461 86.3309 162.914 90.7157 162.666 96.176C162.335 101.636 166.634 106.021 172.091 106.021ZM172.835 86.9928C173.827 86.9928 174.736 87.1582 175.646 87.4064C175.729 87.4064 175.811 87.4064 175.894 87.3237C175.977 87.2409 175.977 87.1582 175.977 87.0755V86.6618C176.225 80.3742 181.599 75.2448 187.882 75.2448C193.173 75.2448 197.555 78.8023 198.63 83.8489C198.63 83.9317 198.713 84.0144 198.878 84.0971C198.961 84.0971 199.126 84.0971 199.209 84.0144C200.945 82.1115 203.343 81.036 205.906 81.036C210.701 81.036 214.587 84.9244 214.339 89.7229C214.339 90.0539 214.256 90.4675 214.256 90.7984C214.256 90.8812 214.256 90.9639 214.339 91.0466C214.421 91.1294 214.504 91.1294 214.587 91.1294C218.472 91.2121 221.449 94.3559 221.366 98.2444C221.201 102.216 217.811 105.359 213.843 105.359H172.256C167.047 105.359 163.162 101.223 163.327 96.176C163.327 91.1294 167.709 86.9928 172.835 86.9928Z" fill="#2D2650"/>
<path d="M181.185 99.4853C181.268 99.4853 181.268 99.568 181.351 99.568H181.433C181.516 99.4853 181.599 99.4026 181.599 99.3198L181.681 96.8379H190.362C190.528 96.8379 190.61 96.7552 190.693 96.5897L190.858 92.5358C190.858 92.4531 190.858 92.3703 190.776 92.2876C190.693 92.2049 190.61 92.2049 190.528 92.2049H181.847L181.929 89.7229C181.929 89.6402 181.847 89.4747 181.764 89.4747C181.681 89.392 181.516 89.392 181.433 89.4747L174.158 94.2732C174.075 94.3559 173.992 94.4386 173.992 94.5214C173.992 94.6041 174.075 94.6868 174.075 94.7696L181.185 99.4853ZM181.433 90.0538L181.351 92.2876C181.351 92.3703 181.351 92.4531 181.433 92.5358C181.516 92.6185 181.599 92.6185 181.681 92.6185H190.362L190.197 96.0933H181.433C181.268 96.0933 181.185 96.2588 181.103 96.3415L181.02 98.5753L174.902 94.2732L181.433 90.0538ZM193.091 96.6724H201.772L201.689 99.1544C201.689 99.2371 201.772 99.4026 201.854 99.4026H202.02C202.102 99.4026 202.102 99.4026 202.185 99.3198L209.461 94.5214C209.543 94.4386 209.626 94.3559 209.626 94.2732C209.626 94.1904 209.543 94.1077 209.543 94.025L202.681 89.2265C202.599 89.1438 202.516 89.1438 202.433 89.2265C202.351 89.2265 202.268 89.392 202.268 89.4747L202.185 91.9567H193.504C193.339 91.9567 193.256 92.1221 193.256 92.2049L193.091 96.2588C193.091 96.3415 193.091 96.4242 193.173 96.507C193.256 96.5897 193.008 96.6724 193.091 96.6724ZM193.504 92.6185H202.185C202.351 92.6185 202.433 92.5358 202.516 92.3703L202.599 90.1366L208.717 94.4386L202.268 98.7407L202.351 96.507C202.351 96.4242 202.351 96.3415 202.268 96.2588C202.185 96.176 202.102 96.176 202.02 96.176H193.339L193.504 92.6185ZM189.288 128.855C187.717 128.855 186.394 130.096 186.394 131.668C186.311 133.24 187.551 134.481 189.122 134.481C190.693 134.481 192.016 133.24 192.099 131.668C192.099 130.096 190.858 128.855 189.288 128.855ZM191.437 131.668C191.354 132.909 190.28 133.902 189.04 133.902C187.799 133.902 186.807 132.909 186.89 131.668C186.973 130.427 187.965 129.434 189.205 129.434C190.445 129.434 191.354 130.427 191.354 131.585V131.668H191.437ZM150.512 112.061H158.614C158.78 112.061 158.945 111.895 158.945 111.73C158.945 111.564 158.78 111.399 158.614 111.399H150.512C150.347 111.399 150.181 111.564 150.181 111.73C150.181 111.895 150.347 112.061 150.512 112.061ZM161.922 112.061H181.516C181.681 112.061 181.847 111.895 181.847 111.73C181.847 111.564 181.681 111.399 181.516 111.399H161.922C161.756 111.399 161.591 111.564 161.591 111.73C161.591 111.895 161.756 112.061 161.922 112.061ZM183.831 111.73C183.831 111.895 183.996 112.061 184.162 112.061H227.402C227.567 112.061 227.732 111.895 227.732 111.73C227.732 111.564 227.567 111.399 227.402 111.399H184.162C183.914 111.481 183.831 111.564 183.831 111.73ZM149.933 116.28H170.355C170.52 116.28 170.685 116.115 170.685 115.949C170.685 115.784 170.52 115.618 170.355 115.618H149.933C149.768 115.618 149.603 115.784 149.603 115.949C149.603 116.115 149.768 116.28 149.933 116.28ZM194.992 116.28C195.158 116.28 195.323 116.115 195.323 115.949C195.323 115.784 195.158 115.618 194.992 115.618H172.752C172.587 115.618 172.421 115.784 172.421 115.949C172.421 116.115 172.587 116.28 172.752 116.28H194.992ZM226.74 115.701H197.142C196.977 115.701 196.811 115.866 196.811 116.032C196.811 116.197 196.977 116.363 197.142 116.363H226.658C226.823 116.363 226.988 116.197 226.988 116.032C226.988 115.866 226.823 115.701 226.74 115.701ZM149.272 120.582H158.697C158.862 120.582 159.028 120.417 159.028 120.251C159.028 120.086 158.862 119.92 158.697 119.92H149.272C149.107 119.92 148.941 120.086 148.941 120.251C148.941 120.417 149.107 120.582 149.272 120.582ZM181.185 120.003H161.177C161.012 120.003 160.847 120.168 160.847 120.334C160.847 120.499 161.012 120.665 161.177 120.665H181.185C181.351 120.665 181.516 120.499 181.516 120.334C181.516 120.168 181.351 120.003 181.185 120.003ZM226.74 120.003H183.666C183.5 120.003 183.335 120.168 183.335 120.334C183.335 120.499 183.5 120.665 183.666 120.665H226.74C226.906 120.665 227.071 120.499 227.071 120.334C227.071 120.168 226.823 120.003 226.74 120.003ZM66.1817 76.8167C66.2644 76.8994 66.347 76.8994 66.347 76.8994H66.5124C66.5951 76.8167 66.6777 76.7339 66.6777 76.5685L65.0242 69.0398H69.4888C70.7289 69.0398 71.8037 68.047 71.8037 66.7233V28.3355C71.8037 27.0946 70.8116 26.019 69.4888 26.019H26.4968C25.2566 26.019 24.1818 27.0118 24.1818 28.3355V66.7233C24.1818 67.9643 25.1739 69.0398 26.4968 69.0398H55.7644C59.3195 71.6873 66.0163 76.6512 66.1817 76.8167ZM24.7606 66.7233V28.3355C24.7606 27.4255 25.5047 26.5982 26.4968 26.5982H69.4888C70.3982 26.5982 71.225 27.3428 71.225 28.3355V66.7233C71.225 67.6334 70.4809 68.4607 69.4888 68.4607H64.6935C64.6108 68.4607 64.5281 68.4607 64.4455 68.5434C64.3628 68.6262 64.3628 68.7089 64.3628 68.7916L65.9337 75.9066C64.1974 74.5829 59.1542 70.8599 56.0124 68.4607C55.9298 68.4607 55.9297 68.378 55.8471 68.378H26.4968C25.5047 68.378 24.7606 67.6334 24.7606 66.7233Z" fill="#2D2650"/>
<path d="M57.4179 60.6839L60.2289 57.871C60.3116 57.7883 60.3116 57.6228 60.2289 57.54L58.6581 55.1408C59.4848 53.8171 60.0636 52.4106 60.3943 51.0042L63.2053 50.3423C63.3706 50.3423 63.4533 50.1769 63.4533 50.0941V46.123C63.4533 45.9575 63.3706 45.8748 63.2053 45.8748L60.3943 45.2129C60.0636 43.7238 59.4848 42.3173 58.6581 40.9936L60.1462 38.5116C60.2289 38.4289 60.2289 38.2634 60.1462 38.1807L57.3352 35.3678C57.2525 35.2851 57.0872 35.2851 57.0045 35.3678L54.6069 36.9397C53.3667 36.1124 51.9612 35.5333 50.3904 35.2023L49.7289 32.3894C49.7289 32.224 49.5636 32.1412 49.4809 32.1412H45.5124C45.3471 32.1412 45.2644 32.224 45.2644 32.3894L44.603 35.2023C43.1148 35.5333 41.7093 36.1124 40.4691 36.9397L37.9888 35.3678C37.9062 35.2851 37.7408 35.2851 37.6581 35.3678L34.8471 38.1807C34.7644 38.2634 34.7644 38.4289 34.8471 38.5116L36.3353 40.9936C35.5085 42.3173 34.9298 43.7238 34.5991 45.2129L31.7881 45.8748C31.6227 45.8748 31.54 46.0403 31.54 46.123V50.0941C31.54 50.2596 31.6227 50.3423 31.7881 50.3423L34.5991 51.0042C34.9298 52.4934 35.5085 53.8998 36.3353 55.1408L34.8471 57.54C34.7644 57.6228 34.7644 57.7883 34.8471 57.871L37.6581 60.6839C37.7408 60.7666 37.9062 60.7666 37.9888 60.6839L40.3865 59.112C41.7093 59.9393 43.1148 60.5184 44.603 60.8493L45.2644 63.6622C45.2644 63.8277 45.4298 63.9104 45.5124 63.9104H49.4809C49.6463 63.9104 49.7289 63.8277 49.7289 63.6622L50.3904 60.8493C51.8786 60.5184 53.2841 59.9393 54.5242 59.112L57.0045 60.6839C57.1699 60.7666 57.3352 60.7666 57.4179 60.6839ZM54.4415 58.6156C53.1187 59.4429 51.7132 60.1047 50.1423 60.4357C50.0597 60.4357 49.977 60.5184 49.8943 60.6839L49.2329 63.414H45.6778L45.0164 60.6839C45.0164 60.6011 44.9337 60.5184 44.7683 60.4357C43.2802 60.1047 41.792 59.5256 40.4691 58.6156C40.3865 58.5328 40.2211 58.5328 40.1384 58.6156L37.7408 60.1048L35.1778 57.6228L36.666 55.2236C36.7487 55.1408 36.7487 54.9753 36.666 54.8926C35.8392 53.5689 35.1778 52.0797 34.8471 50.5905C34.8471 50.5078 34.7644 50.4251 34.5991 50.3423L31.7881 49.6805V46.123L34.5164 45.4611C34.5991 45.4611 34.6818 45.3784 34.7644 45.2129C35.0951 43.7238 35.6739 42.2346 36.5007 40.9109C36.5833 40.8281 36.5833 40.6627 36.5007 40.5799L35.0125 38.1807L37.4928 35.6987L39.8904 37.1879C39.9731 37.2706 40.1384 37.2706 40.2211 37.1879C41.5439 36.3606 42.9494 35.6987 44.5203 35.3678C44.603 35.3678 44.6857 35.2851 44.7683 35.1196L45.4298 32.3894H48.9849L49.6463 35.1196C49.6463 35.2023 49.729 35.2851 49.8943 35.3678C51.4652 35.6987 52.8707 36.2779 54.1935 37.1879C54.2762 37.2706 54.4415 37.2706 54.5242 37.1879L56.9218 35.6987L59.4021 38.1807L57.914 40.5799C57.8313 40.6627 57.8313 40.8281 57.914 40.9109C58.8234 42.2346 59.4022 43.641 59.7329 45.2129C59.7329 45.2957 59.8155 45.3784 59.9809 45.4611L62.7919 46.123V49.6805L60.0636 50.3423C59.9809 50.3423 59.8982 50.4251 59.8155 50.5905C59.4848 52.0797 58.9061 53.5689 58.0793 54.8926C57.9966 54.9753 57.9966 55.1408 58.0793 55.2236L59.5675 57.6228L57.0872 60.1048L54.6896 58.6156C54.6896 58.5328 54.5242 58.5328 54.4415 58.6156Z" fill="#2D2650"/>
<path d="M44.3549 40.249C42.288 40.9936 40.6345 42.6483 39.8904 44.7166C38.7329 47.9431 39.3943 51.3352 41.7093 53.6517C45.9258 57.7883 53.1187 56.2991 55.1029 51.0042C57.6659 44.1375 51.2171 37.6843 44.3549 40.249ZM54.5242 50.8388C52.7053 55.8027 45.9258 57.2092 42.04 53.3207C39.8904 51.1697 39.229 47.9431 40.3038 44.9648C41.0479 43.0619 42.5361 41.49 44.4376 40.8282C50.9691 38.4289 56.9218 44.3857 54.5242 50.8388Z" fill="#2D2650"/>
</g>
<defs>
<clipPath id="clip0_4101_856">
<rect width="341" height="250" fill="white"/>
</clipPath>
</defs>
</svg>
