<svg width="341" height="250" viewBox="0 0 341 250" fill="none" xmlns="http://www.w3.org/2000/svg">
<g clip-path="url(#clip0_4101_1305)">
<g clip-path="url(#clip1_4101_1305)">
<path d="M469.128 201.855H3.27527C13.8297 178.563 24.9301 167.007 35.4846 156.908C39.488 153.086 43.5825 149.174 49.4966 146.899C59.4142 142.987 72.0613 144.625 82.1609 148.264C92.2604 151.904 100.813 157.272 110.549 161.366C142.121 174.65 187.251 173.559 213.637 154.724C238.84 136.8 269.958 159.729 279.42 142.623C286.699 129.43 298.528 120.604 321.092 120.968C337.288 121.241 351.573 129.066 366.677 133.524C399.159 143.078 401.252 131.978 425.818 149.538C440.012 159.82 450.112 183.476 469.128 201.855Z" fill="#F5F5F5"/>
<path d="M60.3237 223.51C59.8688 225.33 61.0516 227.059 62.7804 227.513C63.0534 227.604 63.3263 227.604 63.5083 227.604C65.0551 227.604 66.4199 226.604 66.6928 225.057L77.7022 177.562C78.1572 175.742 76.9743 174.013 75.2456 173.558C73.4259 173.103 71.6971 174.286 71.2422 176.015L60.3237 223.51ZM27.1135 227.513C27.3865 227.604 27.6595 227.604 27.8414 227.604C29.3882 227.604 30.753 226.604 31.117 225.057L42.1264 177.562C42.5813 175.742 41.3985 174.013 39.6697 173.558C37.85 173.103 36.1212 174.286 35.6663 176.015L24.6569 223.51C24.202 225.33 25.3848 227.059 27.1135 227.513Z" fill="white"/>
<path d="M12.1013 111.05C13.1932 108.047 14.649 105.044 15.2859 101.951C13.9211 104.772 12.7382 107.956 11.9194 111.596C12.0103 111.414 12.0103 111.232 12.1013 111.05ZM92.6247 191.482C94.4445 191.209 96.0822 190.936 97.72 190.663C111.095 185.204 116.372 177.925 117.282 170.464C110.549 171.192 103.816 173.103 97.0831 174.104C87.7114 175.559 77.9758 175.377 68.7862 173.012C65.3287 172.102 61.8712 170.919 58.2317 170.737C55.957 170.646 53.6823 170.919 51.4987 170.282C44.4927 168.28 43.2189 158.636 37.6687 153.904C36.2129 152.631 34.4841 151.812 33.0283 150.629C22.9288 142.895 24.4755 125.789 14.467 117.965C13.4661 117.146 12.1923 116.418 11.7374 115.144C11.5554 114.689 11.4644 114.325 11.4644 113.87C11.2825 114.962 11.1005 116.054 11.0095 117.146C7.00607 151.721 31.6635 199.307 92.6247 191.482Z" fill="#F5F5F5"/>
<path d="M89.2577 227.878L89.0757 236.339L97.9924 237.249L98.2654 227.605L89.2577 227.878Z" fill="white"/>
<path d="M97.2647 233.246C97.2647 232.427 97.9016 231.79 98.7205 231.79C99.3574 231.79 99.8124 232.154 100.085 232.7L101.086 235.612L110.458 238.796C111.732 239.251 112.551 240.434 112.551 241.708C112.551 241.89 112.369 242.072 112.187 242.072L85.9824 241.89C85.8004 241.89 85.6184 241.708 85.6184 241.526V237.977C85.6184 237.977 85.7094 233.519 89.3489 232.7C89.3489 232.7 91.0776 236.43 94.7171 236.157C96.9008 236.067 97.2647 233.246 97.2647 233.246ZM118.465 227.878L118.283 236.339L127.199 237.249L127.381 227.605L118.465 227.878Z" fill="white"/>
<path d="M55.8657 69.5597C56.1387 71.4705 54.8649 73.1082 53.2271 73.3812C51.4984 73.5632 49.9516 72.2894 49.7696 70.3786C49.5876 68.4679 50.6795 66.8301 52.4082 66.5572C54.046 66.3752 55.5928 67.74 55.8657 69.5597ZM39.3971 74.2911C39.4881 73.4722 39.2151 72.3803 38.5782 71.3795C37.4864 69.6507 35.7576 68.8319 34.6658 69.4688C33.6649 70.1057 33.6649 72.1074 34.7568 73.8361C35.3937 74.746 36.1216 75.4739 36.8495 75.7469M80.2502 140.984V142.804H71.6065V144.351H62.5078L59.4142 142.349L58.0494 141.53C57.3215 140.53 57.0486 138.892 58.1404 137.254C58.9593 135.98 60.1421 134.797 61.234 133.978L65.3284 134.524L70.0597 135.07C70.5146 135.07 70.9696 135.161 71.4245 135.343L78.1575 138.346C79.4313 138.983 80.2502 139.711 80.2502 140.984ZM62.5988 139.711L71.6974 142.713Z" fill="white"/>
<path d="M104.999 65.1929L104.18 66.8306C103.27 68.1954 101.359 71.016 100.176 72.0169C99.9943 72.2898 99.9033 72.6538 99.7214 72.9267C99.6304 73.0177 99.6304 73.1997 99.5394 73.2907C99.1755 74.0186 98.9025 74.7465 98.6295 75.3834H98.5385C97.7197 75.2924 97.0828 74.8375 97.0828 74.8375C95.627 74.1096 94.5351 73.1997 93.6253 72.0169C93.6253 72.0169 93.5343 71.9259 93.5343 71.8349C93.5343 71.7439 93.4433 71.7439 93.4433 71.6529C93.5343 71.289 93.6252 70.8341 93.7162 70.3791C93.7162 70.2881 93.8072 70.1061 93.8072 70.0152C93.9892 68.8323 94.1712 67.5585 93.9892 66.7396C93.5343 64.9199 92.2604 60.8255 93.5343 60.7345C94.8081 60.6435 96.6278 62.7362 96.9008 64.5559C96.9008 64.5559 99.3574 60.5525 99.0845 57.9139C99.0845 57.9139 98.9025 56.2761 100.085 56.7311C100.449 56.8221 101.177 59.7336 100.904 60.6435C101.086 60.1886 101.723 58.2779 101.814 57.7319C101.905 57.095 103.088 56.9131 103.27 58.9148C103.361 58.8238 103.816 58.3688 104.271 58.5508C104.817 58.8238 104.635 60.2796 104.635 60.4615C104.635 60.3705 104.999 59.9156 105.636 60.1886C106.545 60.8255 105.545 63.7371 104.999 65.1929Z" fill="white"/>
<path d="M96.901 64.7373C96.901 64.7373 97.2649 66.648 96.901 67.7399ZM103.179 59.0051C103.179 59.0051 102.724 60.6429 101.996 61.9167ZM104.544 60.5519C104.544 60.5519 103.816 62.3716 103.179 63.3725Z" fill="white"/>
<path d="M87.8163 84.8911C79.8095 84.8911 72.3485 81.5246 67.3442 75.6104C62.7039 70.2422 60.4292 63.2362 61.0662 55.9573C62.34 40.0346 76.2609 27.0234 92.0927 27.0234H93.7304C100.827 13.3754 114.93 4.54968 129.943 4.54968C143.409 4.54968 155.602 11.8286 161.607 23.6569C162.153 24.7488 162.698 25.8406 163.153 27.0234C163.608 26.9325 164.063 26.9325 164.518 26.9325C169.886 26.9325 174.8 29.0252 178.348 32.8466C181.351 36.0311 182.989 40.1256 183.262 44.4929C188.084 44.8569 192.542 46.9496 195.818 50.4071C199.366 54.3195 201.186 59.4148 200.731 64.874C199.821 75.8834 190.086 84.8001 179.076 84.8001H87.8163V84.8911Z" fill="#E1E5E2"/>
<path d="M80.5375 84.8911C72.5306 84.8911 65.0697 81.5246 60.0654 75.6104C55.4251 70.2422 53.1504 63.2362 53.7873 55.9573C55.0612 40.0346 68.9821 27.0234 84.8139 27.0234H86.4516C93.5486 13.3754 107.652 4.54968 122.664 4.54968C136.13 4.54968 148.323 11.8286 154.328 23.6569C154.874 24.7488 155.42 25.8406 155.875 27.0234C156.33 26.9325 156.784 26.9325 157.239 26.9325C162.608 26.9325 167.521 29.0252 171.069 32.8466C174.072 36.0311 175.71 40.1256 175.983 44.4929C180.805 44.8569 185.263 46.9496 188.539 50.4071C192.087 54.3195 193.907 59.4148 193.452 64.874C192.542 75.8834 182.807 84.8001 171.797 84.8001H80.5375V84.8911Z" fill="white"/>
<path d="M118.024 70.0606H129.033C129.761 70.0606 130.398 69.4237 130.398 68.6958V46.495C130.398 45.7671 131.035 45.1302 131.763 45.1302H137.313C138.405 45.1302 139.042 43.9474 138.405 43.0375L124.757 23.0204C124.211 22.2925 123.119 22.2925 122.573 23.0204L108.925 43.0375C108.288 43.9474 108.925 45.1302 110.017 45.1302H115.567C116.295 45.1302 116.932 45.7671 116.932 46.495V68.6958C116.659 69.4237 117.296 70.0606 118.024 70.0606Z" fill="#DFDC01"/>
<path d="M170.25 57.777C169.432 57.777 168.795 58.4139 168.795 59.2328C168.795 59.9607 169.432 60.6886 170.25 60.6886C171.069 60.6886 171.706 60.0517 171.706 59.2328C171.706 58.4139 171.069 57.777 170.25 57.777Z" fill="#2D2650"/>
<path d="M156.875 50.2251C156.057 50.2251 155.42 50.862 155.42 51.6809C155.42 52.4998 156.147 53.1367 156.875 53.1367C157.694 53.1367 158.331 52.4998 158.331 51.6809C158.331 50.862 157.694 50.2251 156.875 50.2251Z" fill="#2D2650"/>
<path d="M93.1846 51.6809C93.1846 52.4998 93.8214 53.1367 94.6403 53.1367C95.4592 53.1367 96.0961 52.4998 96.0961 51.6809C96.0961 50.862 95.4592 50.2251 94.6403 50.2251C93.8214 50.2251 93.1846 50.862 93.1846 51.6809Z" fill="#2D2650"/>
<path d="M79.9005 59.2328C79.9005 60.0517 80.5374 60.6886 81.3563 60.6886C82.1751 60.6886 82.812 59.9607 82.812 59.2328C82.812 58.4139 82.1751 57.777 81.3563 57.777C80.5374 57.777 79.9005 58.4139 79.9005 59.2328Z" fill="#2D2650"/>
<path fill-rule="evenodd" clip-rule="evenodd" d="M130.125 5.18659L130.145 5.18659C129.987 5.15523 129.829 5.1249 129.67 5.0956C129.852 5.18659 130.034 5.18659 130.125 5.18659Z" fill="#2D2650"/>
<path fill-rule="evenodd" clip-rule="evenodd" d="M159.969 85.346H179.167C190.45 85.346 200.276 76.2474 201.186 65.1469C201.641 59.5967 199.821 54.4105 196.182 50.4981C192.906 46.9496 188.539 44.8569 183.717 44.4929C183.444 40.1256 181.715 36.1221 178.712 32.9376C175.073 29.1161 170.159 26.9325 164.7 26.9325C164.336 26.9325 163.972 26.9325 163.517 27.0234C163.062 25.9316 162.608 24.8398 162.062 23.8389C155.965 11.9196 143.773 4.54968 130.125 4.54968C128.942 4.54968 127.76 4.64067 126.577 4.73165C125.394 4.64067 124.12 4.54968 122.937 4.54968C108.015 4.54968 93.7305 13.3754 86.5425 26.9325H85.0867C69.073 26.9325 55.061 40.0346 53.7872 56.1393C53.1503 63.5092 55.425 70.6062 60.1563 76.0654C65.2516 81.9795 72.8035 85.437 80.9013 85.437H91.0009L104.194 85.346H146.685H159.969ZM161.516 24.1119C162.062 25.2037 162.517 26.2956 162.971 27.4784C162.971 27.5694 163.153 27.6604 163.335 27.6604C163.881 27.5694 164.245 27.5694 164.7 27.5694C169.977 27.5694 174.8 29.6621 178.257 33.3015C181.169 36.3951 182.898 40.3985 183.08 44.6749C183.08 44.8569 183.171 44.9479 183.353 44.9479C188.084 45.2208 192.542 47.3135 195.727 50.771C199.275 54.5925 201.004 59.5968 200.549 64.965C199.639 75.7924 190.086 84.6181 179.167 84.6181H177.074C186.082 82.3435 193.179 74.4276 193.907 65.056C194.362 59.5058 192.542 54.3195 188.903 50.4071C185.627 46.8586 181.26 44.7659 176.438 44.4019C176.165 40.0346 174.436 36.0311 171.433 32.8466C167.794 29.0252 162.88 26.8415 157.421 26.8415C157.057 26.8415 156.693 26.8415 156.238 26.9325C155.784 25.8406 155.329 24.7488 154.783 23.7479C149.852 14.0652 140.768 7.29772 130.145 5.18659L130.125 5.18659C130.034 5.18659 129.852 5.18659 129.67 5.0956C129.829 5.1249 129.987 5.15523 130.145 5.18659C143.512 5.19367 155.513 12.4712 161.516 24.1119ZM60.6112 75.6104C65.5245 81.3426 72.8945 84.7091 80.8103 84.7091L91.0009 84.6181V75.4285H81.3563C81.2653 75.4285 81.0833 75.3375 81.0833 75.1555V61.2345C80.0824 61.0525 79.2636 60.2337 79.2636 59.1418C79.2636 57.959 80.1734 57.0491 81.3563 57.0491C82.5391 57.0491 83.449 57.959 83.449 59.1418C83.449 60.2337 82.6301 61.0525 81.6292 61.2345V74.8825H91.9107C92.0927 74.8825 92.1837 75.0645 92.1837 75.2465V84.8001H104.831V68.1495H95.1863C95.0043 68.1495 94.8223 67.9675 94.8223 67.7856V53.8646C93.7305 53.6826 93.0026 52.8637 93.0026 51.7719C93.0026 50.5891 93.9124 49.6792 95.0953 49.6792C96.2781 49.6792 97.188 50.5891 97.188 51.7719C97.188 52.8637 96.3691 53.6826 95.3682 53.8646V67.5126H105.013C105.104 67.5126 105.286 67.6946 105.286 67.8766V84.8911H147.049V67.8766C147.049 67.6946 147.14 67.5126 147.322 67.5126H156.966V53.8646C155.965 53.6826 155.147 52.8637 155.147 51.7719C155.147 50.5891 156.056 49.6792 157.239 49.6792C158.422 49.6792 159.332 50.5891 159.332 51.7719C159.332 52.8637 158.513 53.6826 157.512 53.8646V67.7856C157.512 67.9675 157.33 68.1495 157.148 68.1495H147.504V84.8001H160.151V75.2465C160.151 75.0645 160.242 74.8825 160.424 74.8825H170.068V61.2345C168.977 61.0525 168.249 60.2337 168.249 59.1418C168.249 57.959 169.159 57.0491 170.341 57.0491C171.524 57.0491 172.434 57.959 172.434 59.1418C172.434 60.2337 171.615 61.0525 170.614 61.2345V75.1555C170.614 75.2465 170.523 75.4285 170.341 75.4285H160.697V84.6181H171.979C182.898 84.6181 192.451 75.7924 193.361 64.965C193.816 59.5968 192.087 54.5925 188.539 50.771C185.263 47.3135 180.896 45.2208 176.165 44.9479C175.983 44.9479 175.892 44.8569 175.892 44.6749C175.619 40.3985 173.981 36.3951 171.069 33.3015C167.612 29.6621 162.79 27.5694 157.512 27.5694C157.057 27.5694 156.602 27.5694 156.147 27.6604C155.965 27.6604 155.875 27.5694 155.784 27.4784C155.42 26.2956 154.874 25.2037 154.328 24.1119C148.323 12.4655 136.312 5.18659 122.937 5.18659C108.197 5.18659 94.0944 13.9213 86.9974 27.4784C86.9974 27.5694 86.8155 27.6604 86.7245 27.6604H85.1777C69.437 27.6604 55.698 40.4895 54.4241 56.2302C53.7872 63.4182 56.0619 70.3332 60.6112 75.6104ZM170.25 57.777C169.432 57.777 168.795 58.4139 168.795 59.2328C168.795 59.9607 169.432 60.6886 170.25 60.6886C171.069 60.6886 171.706 60.0517 171.706 59.2328C171.706 58.4139 171.069 57.777 170.25 57.777ZM156.875 50.2251C156.057 50.2251 155.42 50.862 155.42 51.6809C155.42 52.4998 156.147 53.1367 156.875 53.1367C157.694 53.1367 158.331 52.4998 158.331 51.6809C158.331 50.862 157.694 50.2251 156.875 50.2251ZM93.1846 51.6809C93.1846 52.4998 93.8214 53.1367 94.6403 53.1367C95.4592 53.1367 96.0961 52.4998 96.0961 51.6809C96.0961 50.862 95.4592 50.2251 94.6403 50.2251C93.8214 50.2251 93.1846 50.862 93.1846 51.6809ZM79.9005 59.2328C79.9005 60.0517 80.5374 60.6886 81.3563 60.6886C82.1751 60.6886 82.812 59.9607 82.812 59.2328C82.812 58.4139 82.1751 57.777 81.3563 57.777C80.5374 57.777 79.9005 58.4139 79.9005 59.2328Z" fill="#2D2650"/>
<path d="M92.6247 191.482C94.4445 191.209 96.0822 190.936 97.72 190.663C115.28 187.388 122.741 180.291 124.834 172.193C129.201 155.634 111.368 134.98 111.368 134.98C111.368 134.98 96.9921 108.32 90.623 102.042C84.2539 95.6732 78.1578 81.2972 45.6755 82.3891C45.6755 82.3891 40.2163 82.4801 33.5742 85.2097C27.2961 87.7573 19.9262 92.6706 15.2859 102.042C13.9211 104.863 12.7382 108.047 11.9194 111.687C11.7374 112.415 11.5554 113.234 11.4644 114.053C11.2825 115.144 11.1005 116.236 11.0095 117.328C7.00607 151.721 31.6635 199.307 92.6247 191.482Z" fill="white"/>
<path d="M126.38 233.246C126.38 232.427 127.017 231.79 127.836 231.79C128.473 231.79 128.928 232.154 129.201 232.7L130.202 235.611L139.573 238.796C140.847 239.251 141.666 240.434 141.666 241.707C141.666 241.889 141.484 242.071 141.302 242.071L115.098 241.889C114.916 241.889 114.734 241.707 114.734 241.525V237.977C114.734 237.977 114.825 233.519 118.464 232.7C118.464 232.7 120.193 236.43 123.833 236.157C126.107 236.066 126.38 233.246 126.38 233.246ZM40.6706 142.805H71.8791L82.8885 114.417C82.8885 114.417 71.4242 90.4871 59.232 87.4846C58.686 87.3026 58.0491 87.3026 57.5032 87.2116C52.8629 86.6657 34.3925 86.0288 26.9316 94.7635C21.6544 100.86 18.7428 141.258 40.6706 142.805Z" fill="white"/>
<path d="M78.2484 143.35C109.821 144.533 114.006 212.591 114.552 226.421C114.643 227.786 115.735 228.878 117.1 228.878H128.473C129.565 228.878 130.475 228.241 130.839 227.24C130.93 226.876 131.021 226.512 131.021 226.148C130.384 214.684 127.836 170.1 127.29 159.546C126.653 147.445 112.823 143.35 112.823 143.35H78.2484Z" fill="#DFDC01"/>
<path d="M78.2484 143.351C109.821 144.534 114.006 212.592 114.552 226.422C114.643 227.787 115.735 228.878 117.1 228.878H128.473C129.565 228.878 130.475 228.242 130.839 227.241C130.475 226.786 130.202 226.24 129.838 225.785C126.835 221.236 124.834 215.958 124.106 210.59C123.742 208.042 123.651 205.404 123.196 202.856C122.65 200.036 121.558 197.397 120.921 194.576C120.284 191.301 120.284 187.934 119.92 184.659C119.556 181.292 118.738 178.108 118.01 174.832C117.464 172.467 116.827 170.101 115.553 168.099C114.552 166.552 113.278 165.279 112.459 163.641C111.368 161.548 111.277 159 110.276 156.908C109.093 154.633 106.909 152.995 104.817 151.449C101.814 149.265 98.8114 147.172 95.3539 145.989C92.6243 145.08 89.7128 144.807 86.9832 143.806C86.5282 143.624 86.1643 143.533 85.7093 143.26H78.2484V143.351Z" fill="#C9C601"/>
<path d="M81.5242 162.366L85.8005 226.421C85.8915 227.786 86.9834 228.787 88.3482 228.787H99.4486C100.449 228.787 101.268 228.241 101.723 227.422C101.905 227.149 101.996 226.876 101.996 226.603C103.725 215.776 111.004 167.007 104.18 156.725C96.537 144.988 83.3439 143.259 83.3439 143.259L45.0384 142.531H43.7646L37.8505 142.44C37.8505 142.531 34.7569 166.825 81.5242 162.366Z" fill="#DFDC01"/>
<path d="M81.5239 162.366L85.8003 226.421C85.8913 227.786 86.9831 228.787 88.3479 228.787H99.4483C100.449 228.787 101.268 228.241 101.723 227.422C101.45 225.966 100.904 224.51 100.267 223.237C98.6294 219.961 96.2638 216.958 95.5359 213.41C94.535 208.133 97.0826 202.128 94.1711 197.578C93.1702 196.031 91.7144 194.94 90.8955 193.393C89.2578 190.299 90.6226 186.569 90.8955 183.111C91.3505 177.47 89.0758 171.647 90.4406 166.097C90.8046 164.641 91.4415 163.185 91.3505 161.638C91.0775 158.636 87.984 156.634 84.9814 155.906C81.9788 155.269 78.7943 155.36 76.0647 154.087C74.6999 153.45 73.517 152.631 72.2432 151.903C68.8767 150.174 65.0553 149.992 61.3248 149.81C57.5943 149.628 53.6819 149.537 50.3154 147.899C48.0407 146.808 46.039 144.806 45.1291 142.531H44.0373L43.9463 142.986C43.9463 142.804 43.9463 142.713 43.8553 142.531L37.9412 142.44C37.8502 142.531 34.7566 166.825 81.5239 162.366Z" fill="#C9C601"/>
<path d="M33.3923 123.151L64.4189 132.705ZM48.8601 85.3916L49.1331 86.8474L47.4953 101.951L38.5786 88.4851C38.5786 88.4851 34.6661 73.0174 34.3932 71.1976C34.3932 71.1976 31.9365 56.3668 44.0378 55.2749C50.6798 54.638 53.5004 61.2801 54.5923 69.7418C55.5931 77.6577 57.4129 84.3907 48.8601 85.3916Z" fill="white"/>
<path d="M40.6712 142.805H57.0489C56.8669 141.986 56.503 141.258 55.957 140.712C54.7742 139.439 52.8635 139.166 51.2257 138.711C48.951 138.074 46.8583 136.982 45.0386 135.526C44.2197 134.889 43.4008 134.07 42.491 133.524C38.9425 131.341 33.9382 131.887 31.2086 128.793C29.0249 126.336 29.3889 122.606 29.9348 119.421C30.5717 116.237 31.2996 112.779 29.8438 109.868C29.4798 109.231 29.1159 108.685 28.8429 107.957C27.7511 105.409 29.0249 102.589 30.2987 100.223C31.5725 97.8575 33.0283 95.1279 32.2095 92.4893C32.0275 91.9434 31.8455 91.4885 31.4816 91.1245C29.7528 92.1254 28.297 93.2172 27.0232 94.673C21.655 100.86 18.7434 141.258 40.6712 142.805Z" fill="#F5F5F5"/>
<path d="M70.8788 144.806L80.4324 113.78C80.7054 113.052 81.3423 112.506 82.1612 112.506H120.922C121.468 112.506 121.922 113.052 121.74 113.598L112.096 144.806H70.8788ZM36.1218 123.97V119.148ZM57.0488 87.2114L79.0676 88.5762L93.1706 70.5608L100.268 74.5642C100.268 74.5642 91.8968 95.0363 85.8007 98.5848C84.1629 99.5856 71.1518 98.7667 71.1518 98.7667" fill="white"/>
<path d="M49.1328 76.2022C49.5878 76.1113 49.8607 76.0203 50.1337 75.9293C50.6796 75.6563 50.5886 75.2014 50.5886 75.0194C50.4976 74.3825 50.2247 73.7456 49.7697 73.1087C49.6787 72.9267 49.4968 72.9267 49.3148 73.0177C49.1328 73.1087 49.1328 73.2907 49.2238 73.4726C49.5878 74.0186 49.7697 74.6555 49.9517 75.2014C49.9517 75.2924 49.9517 75.2924 49.8607 75.3834C49.6787 75.4744 49.4968 75.5653 49.1328 75.6563C48.9509 75.6563 48.8599 75.8383 48.8599 76.0203C48.8599 76.1113 49.0418 76.2022 49.1328 76.2022ZM48.7689 80.0237C48.8599 80.0237 48.8599 80.1147 48.9509 80.1147C49.0418 80.1147 49.1328 80.0237 49.2238 79.9327C49.5878 79.3868 50.0427 79.0228 50.5886 78.9319H50.8616C51.4075 78.9319 51.8624 79.2048 51.8624 79.2048C52.0444 79.2958 52.2264 79.2958 52.3174 79.1138C52.4084 78.9318 52.4084 78.7499 52.2264 78.6589C52.2264 78.6589 51.4985 78.113 50.4976 78.2949C49.8607 78.3859 49.2238 78.8409 48.7689 79.5688C48.5869 79.7507 48.5869 79.9327 48.7689 80.0237ZM46.0393 70.925C45.6753 71.016 45.4024 71.3799 45.4024 71.8349C45.4934 72.2898 45.8573 72.6538 46.2212 72.5628C46.5852 72.5628 46.8582 72.1078 46.8582 71.6529C46.7672 71.198 46.4032 70.834 46.0393 70.925ZM46.0393 69.2872C46.1303 69.1053 46.0393 68.9233 45.9483 68.8323C45.4934 68.5593 45.0384 68.4684 44.5835 68.6503C43.7646 68.9233 43.4007 69.7422 43.4007 69.7422C43.3097 69.9241 43.4007 70.1061 43.5826 70.1971H43.7646C43.8556 70.1971 44.0376 70.1061 44.0376 70.0151C44.0376 70.0151 44.3105 69.3782 44.8564 69.2872C45.1294 69.1963 45.4024 69.2872 45.6753 69.3782C45.7663 69.4692 45.9483 69.4692 46.0393 69.2872ZM53.3182 70.834C53.4092 71.289 53.7732 71.6529 54.1371 71.5619C54.5011 71.4709 54.774 71.107 54.774 70.652C54.683 70.1971 54.3191 69.8332 53.9551 69.9242C53.5002 69.9242 53.2272 70.3791 53.3182 70.834ZM52.4084 67.6495C51.5895 67.9224 51.2255 68.7413 51.2255 68.7413C51.1345 68.9233 51.2255 69.1053 51.4075 69.1963H51.5895C51.6805 69.1963 51.8624 69.1053 51.8624 69.0143C51.8624 69.0143 52.1354 68.3774 52.6813 68.2864C52.9543 68.1954 53.2272 68.2864 53.5002 68.3774C53.6822 68.4684 53.8641 68.3774 53.9551 68.2864C54.0461 68.1044 53.9551 67.9224 53.8641 67.8315C53.3182 67.5585 52.8633 67.4675 52.4084 67.6495ZM36.3947 71.016C35.6668 71.289 35.2118 72.0168 35.6668 72.8357C35.7578 72.9267 35.8487 73.0177 35.9397 73.0177H36.1217C36.3037 72.9267 36.3037 72.7447 36.3037 72.5628C36.2127 72.2898 36.1217 72.1078 36.2127 71.9259C36.3037 71.6529 36.5766 71.5619 36.6676 71.5619C36.8496 71.4709 36.9406 71.289 36.8496 71.198C36.7586 71.107 36.5766 71.016 36.3947 71.016ZM97.8108 126.245C96.537 126.245 95.3542 127.337 95.1722 128.611C94.9902 129.885 95.9001 131.067 97.2649 131.067C98.5387 131.067 99.7215 130.066 99.9035 128.702C100.085 127.428 99.1756 126.245 97.8108 126.245Z" fill="#2D2650"/>
<path fill-rule="evenodd" clip-rule="evenodd" d="M118.283 126.518L122.195 113.78C122.286 113.416 122.195 113.052 122.013 112.779C121.831 112.506 121.467 112.324 121.103 112.324H98.5387C95.7181 107.866 92.9885 103.953 90.9868 101.951C90.0769 101.041 89.0761 99.8587 88.0752 98.6758C87.8933 98.4939 87.7113 98.3119 87.5293 98.0389C93.1705 92.8526 99.9035 76.9299 100.631 75.1102C100.631 75.0192 100.631 75.0192 100.722 75.0192V74.9282C100.813 74.4733 100.631 73.8364 100.176 73.1995C100.267 73.0175 100.358 72.7446 100.54 72.5626C101.723 71.5617 103.543 68.8321 104.544 67.3763C104.885 66.8646 105.146 66.3528 105.402 65.8411L105.454 65.7386C106.637 62.645 106.819 60.8253 105.818 60.3703C105.545 60.2794 105.363 60.1884 105.09 60.2793C105.09 59.7334 104.999 59.0055 104.544 58.7326C104.362 58.6416 103.998 58.5506 103.634 58.8235C103.361 57.5497 102.724 57.4587 102.451 57.4587C101.996 57.4587 101.723 57.7317 101.632 58.1866C101.632 58.3686 101.45 58.9145 101.268 59.4605C101.086 58.3686 100.722 57.0948 100.358 57.0038C99.8125 56.8218 99.5396 56.9128 99.3576 57.0948C98.8117 57.4588 98.9027 58.4596 98.9027 58.5506C99.0847 60.4613 97.083 63.782 96.446 65.0558C95.8091 63.3271 94.9902 60.9163 93.6254 61.0072C93.3525 61.0072 93.1705 61.1892 92.9885 61.3712C92.4426 62.1901 92.8975 64.0098 93.5344 66.4665C93.6254 66.8304 93.7164 67.1034 93.8074 67.4673C93.9894 68.1042 93.8984 69.1051 93.7164 70.4699C93.4435 70.5609 93.1705 70.7428 93.0795 71.0158L79.1585 88.7582L76.6109 88.5763C71.6066 85.6647 64.8736 83.39 55.229 82.6621C56.4118 80.2965 56.0478 76.93 55.5019 73.1085C56.1388 72.3806 56.5938 71.1978 56.4118 70.0149C56.3208 69.378 56.1388 68.9231 55.8659 68.3772C55.9569 68.0132 56.0478 67.2853 56.0478 66.0115C56.0478 64.9197 55.9569 63.8278 55.6839 62.736C58.8684 61.2802 59.6873 58.5506 58.5045 55.912C57.4126 53.3643 54.3191 51.0897 50.0427 52.1815C44.6745 53.5463 42.4908 52.9094 40.6711 52.4545C40.0342 52.2725 39.3972 52.0905 38.7603 51.9995C36.5767 51.7266 33.847 53.0914 31.9363 55.457C29.2067 58.8236 28.5698 63.2819 30.1166 67.7403C31.4814 71.7437 33.1192 74.0184 34.9389 74.5643L35.0299 74.6553C35.6668 77.2939 36.5767 80.9334 37.3045 83.9359C36.1217 84.2999 34.9389 84.6638 33.7561 85.2098C24.6574 88.9402 13.284 97.584 11.0093 117.601C8.64368 138.164 16.2866 159.91 30.8445 174.286L30.9379 174.373C32.2757 175.622 33.7024 176.954 35.3028 178.198L24.7484 223.783C24.5664 224.693 24.6574 225.694 25.2033 226.512C25.7492 227.331 26.5681 227.877 27.478 228.15C27.7509 228.241 28.0239 228.241 28.2968 228.241C30.0256 228.241 31.4814 227.058 31.8453 225.421L41.7629 182.839C48.4959 187.024 57.0487 190.573 67.7852 192.119L60.4152 223.783C59.9603 225.694 61.1431 227.695 63.1448 228.15C63.4178 228.241 63.6907 228.241 63.9637 228.241C65.6925 228.241 67.1482 227.058 67.5122 225.421L75.0641 192.847C76.7013 192.938 78.3385 192.938 79.9758 192.938H79.9774H79.9786C81.161 192.938 82.3435 192.938 83.6169 192.847L85.8915 226.694C85.9825 228.15 87.2563 229.333 88.7121 229.333H89.2581L89.1671 232.881C87.4383 233.427 86.5285 234.883 86.0735 236.157V236.248C85.8006 237.158 85.6186 237.886 85.6186 238.25V241.98C85.6186 242.344 85.8915 242.708 86.3465 242.708L112.551 242.89C112.733 242.89 112.915 242.799 113.006 242.708C113.097 242.617 113.188 242.435 113.188 242.253C113.188 240.797 112.278 239.433 110.913 238.978L101.632 235.793L100.631 233.063C100.358 232.336 99.7215 231.881 98.9937 231.881H98.8117V229.424H99.7216C100.813 229.424 101.723 228.878 102.269 227.877C102.451 227.604 102.542 227.331 102.633 226.967C103.725 219.779 106.091 203.948 107.182 188.935C108.092 188.662 109.002 188.298 109.912 187.934C113.461 204.403 114.37 220.689 114.552 226.603C114.643 228.15 115.826 229.333 117.373 229.333H118.465L118.374 232.881C116.645 233.427 115.735 234.883 115.28 236.157V236.248C114.825 237.431 114.825 238.432 114.825 238.432V241.98C114.825 242.344 115.189 242.708 115.553 242.708L141.757 242.89C141.939 242.89 142.121 242.799 142.212 242.708C142.303 242.617 142.394 242.435 142.394 242.253C142.394 240.797 141.485 239.433 140.029 238.978L130.748 235.793L129.747 233.063C129.474 232.336 128.837 231.881 128.109 231.881H127.927L128.018 229.515H128.746C129.565 229.515 130.293 229.151 130.839 228.605C131.385 228.059 131.658 227.24 131.658 226.512C131.294 220.871 128.473 171.192 127.927 159.91C127.564 153.541 123.651 149.356 119.921 146.808C118.101 143.623 116.281 140.894 114.825 138.892L118.283 126.518ZM87.4383 98.9488C87.2564 98.6758 87.0744 98.4938 86.8924 98.3119C86.7222 98.4821 86.5166 98.6169 86.2978 98.7604C86.1656 98.8471 86.0286 98.937 85.8915 99.0398C85.2546 99.4947 82.98 99.5857 80.4323 99.5857C78.2486 99.5857 75.883 99.4947 74.0633 99.4037C77.7027 104.317 80.6143 109.412 82.0701 112.233H97.6289C94.8992 107.956 92.2606 104.226 90.3499 102.315C89.44 101.314 88.4392 100.132 87.4383 98.9488ZM71.6066 141.531V141.44L73.2444 136.344L71.4246 135.526C71.3797 135.517 71.3357 135.508 71.2924 135.499L71.2307 135.486C70.8615 135.41 70.5393 135.344 70.1508 135.344C70.1508 135.344 61.5071 134.252 61.4161 134.252C60.2332 135.071 59.2324 136.253 58.5045 137.345C57.7766 138.437 57.6856 139.62 58.0496 140.621C58.0496 140.681 58.1304 140.823 58.2113 140.965C58.2518 141.035 58.2922 141.106 58.3225 141.167C58.3225 141.167 58.7775 141.44 58.8684 141.531H66.9663L62.6899 140.075L62.4169 139.984H62.3259C62.235 139.893 62.144 139.802 62.235 139.62L62.3259 139.529C62.4169 139.438 62.5989 139.438 62.6899 139.438H62.7809L63.1448 139.529L69.059 141.531H71.6066ZM70.1508 134.707C70.6057 134.707 71.1517 134.798 71.6066 134.98L73.3354 135.798L80.4323 113.416C80.6143 112.779 81.0692 112.233 81.7061 112.051C80.1594 109.139 77.1568 103.953 73.4263 99.0398C72.7689 99.0398 72.2292 99.0005 71.8589 98.9736C71.6655 98.9595 71.5183 98.9488 71.4246 98.9488C71.2427 98.9488 71.1517 98.7668 71.1517 98.5848C71.1517 98.4029 71.3336 98.3119 71.5156 98.3119C71.7327 98.3119 71.9498 98.3326 72.1768 98.3543C72.4255 98.378 72.686 98.4029 72.9714 98.4029C69.059 93.3986 64.3277 88.8492 59.5054 87.6664C58.9594 87.5754 58.3225 87.4844 57.5036 87.3934H57.4127C55.047 87.1205 51.7715 87.1205 49.8607 87.2115L49.4968 90.396L48.223 101.951C48.223 102.042 48.041 102.224 47.95 102.224H47.859C47.768 102.224 47.6771 102.133 47.5861 102.042L38.7603 88.6672C34.5749 89.7591 30.2986 91.5788 27.478 94.8544C24.0205 98.8578 21.5638 118.147 26.932 130.976C27.023 131.204 27.114 131.408 27.205 131.613C27.296 131.818 27.387 132.023 27.478 132.25C27.478 132.25 27.5689 132.341 27.5689 132.432C27.6599 132.568 27.7282 132.705 27.7964 132.841C27.8647 132.978 27.9329 133.114 28.0239 133.251C28.0239 133.296 28.0466 133.319 28.0694 133.342C28.0921 133.365 28.1149 133.387 28.1149 133.433C28.1149 133.524 28.2059 133.706 28.2968 133.797C28.3423 133.888 28.3878 133.956 28.4333 134.024C28.4788 134.092 28.5243 134.161 28.5698 134.252C28.6153 134.343 28.6835 134.456 28.7518 134.57C28.82 134.684 28.8883 134.798 28.9338 134.889C28.9338 135.071 29.0247 135.162 29.1157 135.253C29.1612 135.344 29.2295 135.435 29.2977 135.526C29.3659 135.616 29.4342 135.707 29.4797 135.798C29.5284 135.872 29.5707 135.938 29.6099 136C29.7169 136.169 29.8014 136.302 29.9346 136.435C29.9801 136.481 30.0256 136.549 30.0711 136.617C30.1166 136.686 30.1621 136.754 30.2076 136.799C30.2531 136.89 30.3213 136.959 30.3895 137.027C30.4578 137.095 30.526 137.163 30.5715 137.254C30.617 137.3 30.6625 137.368 30.708 137.436C30.7535 137.504 30.799 137.573 30.8445 137.618L30.9355 137.709L31.2994 138.073L31.6634 138.437C31.7268 138.564 31.8345 138.647 31.9247 138.716C31.9639 138.746 31.9998 138.773 32.0273 138.801C32.1183 138.847 32.1865 138.915 32.2548 138.983C32.323 139.051 32.3913 139.12 32.4822 139.165C32.6642 139.347 32.9372 139.529 33.2101 139.711C33.3921 139.893 33.6651 140.075 33.847 140.166C33.847 140.257 33.938 140.348 34.029 140.348L34.5749 140.621C34.7082 140.621 34.7926 140.67 34.8997 140.731C34.9389 140.754 34.9811 140.778 35.0299 140.803C35.0754 140.848 35.1436 140.871 35.2118 140.894C35.2801 140.916 35.3483 140.939 35.3938 140.985L35.9397 141.258C36.0307 141.303 36.099 141.326 36.1672 141.349C36.2355 141.371 36.3037 141.394 36.3947 141.44C36.5767 141.44 36.8496 141.531 37.0316 141.622C37.1226 141.622 37.1908 141.644 37.2591 141.667C37.3273 141.69 37.3955 141.713 37.4865 141.713C37.532 141.713 37.6003 141.735 37.6685 141.758C37.7367 141.781 37.805 141.804 37.8505 141.804C37.9869 141.849 38.1007 141.872 38.2144 141.895C38.3282 141.917 38.4419 141.94 38.5784 141.986C38.6694 141.986 38.7831 142.008 38.8968 142.031C39.0106 142.054 39.1243 142.077 39.2153 142.077C39.3063 142.168 39.3972 142.168 39.4882 142.168C39.6247 142.168 39.7839 142.19 39.9432 142.213C40.1024 142.236 40.2616 142.259 40.3981 142.259C40.4543 142.259 40.4758 142.224 40.5055 142.176C40.5238 142.146 40.5453 142.111 40.5801 142.077C40.944 141.622 41.4899 141.349 42.0359 141.349H57.8676L57.7766 141.258C57.1397 140.257 56.8667 138.619 57.9586 136.89C59.1414 135.071 61.1431 133.16 63.0538 132.523L33.3011 123.424C33.1191 123.424 33.0282 123.242 33.1192 123.06C33.1192 122.969 33.3011 122.787 33.4831 122.878L35.7578 123.606V119.148C35.7578 119.057 35.9397 118.875 36.1217 118.875C36.2127 118.875 36.3947 118.966 36.3947 119.148V123.788L64.5096 132.432C64.6006 132.432 64.6916 132.523 64.6916 132.523C64.9646 132.614 65.1465 132.705 65.3285 132.887C65.6015 133.16 65.6925 133.615 65.6925 134.161L70.1508 134.707ZM86.5285 97.8569C84.0718 94.9453 80.9783 91.5788 76.2469 88.7582L61.1431 87.8484C65.6925 89.6681 69.9688 94.0355 73.6083 98.7668C78.6126 98.9488 84.7087 99.0398 85.7096 98.4938C85.9825 98.3119 86.2555 98.1299 86.5285 97.8569ZM93.4435 61.1892C93.4435 61.1892 93.3525 61.1892 93.3525 61.2802C93.0992 61.6602 93.3307 62.9658 93.5869 64.2153C93.6232 64.3921 93.6599 64.5678 93.6959 64.7396L93.6969 64.7446C93.7715 65.1012 93.8426 65.4408 93.8984 65.7386C93.9894 66.1025 94.0804 66.4665 94.1713 66.7394C94.3533 67.5583 94.2623 68.7411 94.0804 69.742C95.1722 69.56 96.901 69.9239 98.5387 71.3797C98.7855 71.5648 98.9905 71.7918 99.182 72.0039C99.2729 72.1045 99.3607 72.2018 99.4486 72.2896C99.4486 72.1564 99.4974 72.0719 99.5592 71.9649C99.5818 71.9257 99.6062 71.8834 99.6306 71.8347L99.7216 71.7437C100.71 70.9833 102.207 68.7616 103.15 67.3616C103.335 67.0863 103.499 66.8428 103.634 66.6484C103.892 66.3253 104.059 65.9563 104.232 65.5739C104.302 65.418 104.374 65.2598 104.453 65.1017C105.636 62.0081 105.636 60.7343 105.181 60.5523C104.908 60.4613 104.817 60.4613 104.635 60.6433C104.616 60.6805 104.575 60.7784 104.515 60.9193C104.284 61.4679 103.777 62.6675 103.27 63.4639C103.179 63.5549 103.088 63.6459 102.997 63.6459C102.952 63.6459 102.929 63.6231 102.906 63.6004C102.883 63.5776 102.861 63.5549 102.815 63.5549C102.633 63.4639 102.633 63.2819 102.724 63.0999C103.27 62.1901 103.907 60.6433 103.998 60.3703C104.089 59.7334 103.998 58.9145 103.816 58.8235C103.725 58.8235 103.543 58.9145 103.27 59.0965C103.179 59.4605 102.815 60.8253 102.087 62.0081C101.996 62.0991 101.905 62.1901 101.814 62.1901H101.632C101.541 62.0991 101.45 61.9171 101.541 61.7351C102.178 60.6433 102.633 59.2785 102.724 58.9145C102.633 57.9137 102.269 57.6407 102.087 57.6407C101.996 57.6407 101.905 57.7317 101.905 57.8227C101.905 58.2776 101.541 59.3695 101.086 60.5523L100.995 60.8253C100.995 61.0072 100.813 61.0982 100.631 61.0072C100.54 61.0072 100.449 60.8253 100.449 60.6433C100.722 59.8244 100.086 57.3678 99.8125 57.0948C99.785 57.0948 99.7491 57.0865 99.7099 57.0774C99.6197 57.0564 99.512 57.0314 99.4486 57.0948C99.2666 57.2768 99.2666 57.7317 99.2666 58.0047C99.5312 60.4738 97.5737 63.8829 97.1214 64.6706L97.0829 64.7377C97.0829 64.8424 97.0974 65.0049 97.1152 65.2052C97.1748 65.8756 97.2721 66.9697 96.992 67.7403C96.992 67.8313 96.81 67.9222 96.719 67.9222H96.628C96.446 67.9222 96.355 67.7403 96.446 67.5583C96.81 66.5574 95.678 64.3738 95.678 64.3738C95.405 62.554 94.4443 61.0982 93.4435 61.1892ZM79.3405 88.7582C79.2495 88.8492 79.1585 88.8492 79.0675 88.8492L77.7027 88.7582C81.8881 91.4878 84.7997 94.5814 87.0744 97.311C91.9877 92.7617 97.8108 79.5686 99.5396 75.5651C99.3576 75.6561 99.1756 75.6561 98.9937 75.6561H98.5387C97.7198 75.5651 96.992 75.1102 96.992 75.1102C95.5362 74.4733 94.4443 73.4724 93.4435 72.2896C93.3872 72.2896 93.3657 72.2549 93.3361 72.2068C93.3177 72.1771 93.2962 72.1424 93.2615 72.1076C93.2615 72.0621 93.2387 72.0394 93.216 72.0167C93.1932 71.9939 93.1705 71.9712 93.1705 71.9257C93.0795 71.8347 92.9885 71.6527 92.8975 71.4707L79.3405 88.7582ZM57.1397 86.9385L74.9731 88.0304C70.1508 85.3917 63.6907 83.39 54.683 82.8441C54.6376 82.8896 54.5921 82.9578 54.5466 83.0261C54.5011 83.0943 54.4556 83.1625 54.4101 83.208C53.4092 84.5728 51.6805 85.3917 49.3148 85.7557L49.4968 86.7565C51.4985 86.6656 54.683 86.6655 57.1397 86.9385ZM53.1363 73.1085C54.5921 72.9265 55.7749 71.3797 55.5019 69.651C55.32 67.9222 53.7732 66.6484 52.4084 66.9214C50.8616 67.1034 49.7698 68.6501 50.0427 70.3789C50.2247 72.0167 51.5895 73.2905 53.1363 73.1085ZM52.8633 63.2819C48.6779 64.4647 42.9457 64.8287 38.3964 65.0107C39.0333 66.3755 39.1243 68.3772 39.1243 70.2879L41.399 70.1969C41.5809 69.651 41.7629 69.1961 42.0359 68.7411C42.5818 67.9222 43.4007 67.3763 44.3105 67.2853C45.7663 67.1034 47.2221 68.0132 47.859 69.469C48.314 69.1961 48.8599 69.1961 49.3148 69.287C49.5878 67.7403 50.6796 66.4665 52.2264 66.2845C52.7723 66.2845 53.2273 66.2845 53.6822 66.4665C53.4092 65.2836 53.1363 64.2828 52.8633 63.2819ZM45.3114 74.1093C46.0393 73.9274 46.6762 73.5634 47.1311 72.9265C47.5861 72.1986 47.768 71.3797 47.6771 70.6518C47.4041 68.8321 45.9483 67.8312 44.4925 67.9222C43.7646 68.1042 43.1277 68.4682 42.6728 69.1051C42.2178 69.742 42.0359 70.5609 42.1269 71.3797C42.3998 73.0175 43.7646 74.2913 45.3114 74.1093ZM36.7586 75.9291C36.3037 75.7471 35.9397 75.4742 35.5758 75.2012C36.2127 77.6578 36.9406 80.8424 37.3955 83.1171C37.4865 83.39 37.5775 83.572 37.5775 83.754C38.0324 85.6647 38.3964 87.2115 38.5784 87.8484C38.6694 87.9394 38.6694 87.9394 38.6694 88.0304L38.9423 88.3943L40.3071 90.487C43.4007 91.1239 46.0393 90.9419 48.314 89.9411C48.314 89.7591 48.6779 86.6655 48.6779 86.5746C48.6779 86.3926 48.4959 85.4827 48.4959 85.3917C45.9483 85.3917 43.0367 84.3909 42.9457 84.3909C42.7638 84.3909 42.6728 84.2089 42.7638 84.0269C42.8548 83.845 43.0367 83.754 43.2187 83.8449C46.8582 85.0278 48.5869 84.8458 48.7689 84.8458C55.5019 84.1179 55.5019 79.6596 54.5921 72.9265C54.1371 73.1995 53.6822 73.3815 53.1363 73.4725C51.4075 73.7454 49.5878 72.2896 49.3148 70.1969V69.742C48.8599 69.56 48.4959 69.651 48.132 69.833C48.132 70.0149 48.223 70.1969 48.223 70.3789C48.4959 72.3806 47.2221 74.2913 45.3114 74.5643C43.5826 74.8372 41.7629 73.3815 41.4899 71.2888V70.6518L39.3063 70.7428C39.3063 70.8338 39.2153 71.7437 39.2153 71.8347C39.5792 72.6536 39.7612 73.4724 39.6702 74.2003C39.6702 74.3823 39.4882 74.4733 39.3063 74.4733C39.1243 74.4733 39.0333 74.2913 39.0333 74.1093C39.3063 71.4707 35.8488 68.2862 34.5749 69.742C34.211 70.1969 33.938 71.6527 35.0299 73.4725C35.0299 73.5634 35.0299 73.5634 35.3028 73.9274C35.7578 74.4733 36.3037 75.0192 36.9406 75.2922C37.1226 75.3832 37.2136 75.5651 37.1226 75.7471C37.1226 75.8381 36.9406 75.9291 36.8496 75.9291H36.7586ZM27.9329 227.331C29.2977 227.331 30.4805 226.33 30.8445 224.966L40.762 182.111C38.8513 180.928 37.1226 179.654 35.4848 178.38L25.0213 223.601C24.8393 224.42 24.9303 225.148 25.3853 225.875C25.7492 226.603 26.3861 227.058 27.205 227.24C27.478 227.331 27.7509 227.331 27.9329 227.331ZM63.5998 227.331C64.9646 227.331 66.1474 226.33 66.5113 224.966L73.9723 192.574C71.8796 192.392 69.8779 192.21 67.9671 191.937L60.5972 223.601C60.2332 225.239 61.2341 226.876 62.8719 227.24C63.1448 227.331 63.4178 227.331 63.5998 227.331ZM74.1542 191.937H74.7911C77.5208 192.028 80.2504 192.028 82.889 191.937L80.9782 162.731C61.962 164.459 48.8599 161.73 41.9449 154.633C36.8496 149.356 37.1226 143.532 37.2136 142.531C37.1226 142.44 37.1226 142.44 37.0316 142.44H36.9406C36.8951 142.44 36.8269 142.418 36.7586 142.395C36.6904 142.372 36.6221 142.35 36.5766 142.35H36.4857C36.4402 142.35 36.3947 142.327 36.3492 142.304C36.3037 142.281 36.2582 142.259 36.2127 142.259C36.2127 142.259 36.1217 142.168 36.0307 142.168C35.9852 142.168 35.9625 142.145 35.9397 142.122C35.917 142.099 35.8943 142.077 35.8488 142.077C35.8033 142.077 35.7805 142.054 35.7578 142.031C35.735 142.008 35.7123 141.986 35.6668 141.986H35.5758C35.4393 141.94 35.3028 141.872 35.1664 141.804C35.0299 141.735 34.8934 141.667 34.7569 141.622C34.7114 141.576 34.6659 141.553 34.6204 141.531C34.5749 141.508 34.5294 141.485 34.484 141.44C34.393 141.394 34.3247 141.349 34.2565 141.303C34.1882 141.258 34.12 141.212 34.029 141.167C33.9861 141.145 33.938 141.124 33.8873 141.101C33.7232 141.028 33.5311 140.942 33.3921 140.803C33.3921 140.712 33.3011 140.712 33.3011 140.712C33.2556 140.712 33.2329 140.689 33.2101 140.666C33.1874 140.644 33.1646 140.621 33.1192 140.621C33.046 140.572 32.9794 140.53 32.9176 140.491C32.7487 140.383 32.6154 140.299 32.4822 140.166C32.4367 140.166 32.414 140.143 32.3913 140.12C32.3685 140.098 32.3458 140.075 32.3003 140.075L32.2093 139.984C31.6634 139.62 31.2084 139.256 30.7535 138.801L30.4805 138.528L30.3895 138.437C30.2986 138.255 30.1166 138.073 29.9346 137.891C29.6616 137.618 29.4797 137.436 29.2977 137.163C29.2067 136.981 29.0247 136.708 28.8428 136.526C28.8428 136.435 28.7518 136.344 28.6608 136.253C28.6153 136.208 28.5698 136.14 28.5243 136.071C28.4788 136.003 28.4333 135.935 28.3878 135.889C28.3423 135.798 28.2968 135.73 28.2514 135.662C28.2059 135.594 28.1604 135.526 28.1149 135.435C28.1149 135.389 28.0921 135.366 28.0694 135.344C28.0466 135.321 28.0239 135.298 28.0239 135.253C27.9329 135.162 27.8419 134.98 27.7509 134.798C27.7054 134.752 27.6827 134.707 27.6599 134.661C27.6372 134.616 27.6144 134.57 27.5689 134.525C27.5235 134.479 27.5007 134.411 27.478 134.343C27.4552 134.274 27.4325 134.206 27.387 134.161L26.5681 132.523C26.5226 132.386 26.4544 132.227 26.3861 132.068C26.3179 131.909 26.2496 131.75 26.2041 131.613C26.2041 131.568 26.1814 131.522 26.1586 131.477C26.1359 131.431 26.1132 131.386 26.1132 131.34C26.0677 131.158 25.9994 130.999 25.9312 130.84C25.8629 130.68 25.7947 130.521 25.7492 130.339C20.8359 117.328 23.3836 98.4938 26.8411 94.4904C28.2968 92.7617 30.6625 90.9419 34.211 89.4862H34.302C35.5758 88.9402 36.8496 88.5763 38.2144 88.2123C38.162 87.8451 37.9886 87.1756 37.7639 86.3082C37.5989 85.6711 37.4062 84.9271 37.2136 84.1179C36.1221 84.4817 34.9396 84.9365 33.7572 85.3913L33.7561 85.3917C24.7484 89.0312 13.648 97.584 11.3733 117.328C9.00762 137.709 16.5595 159.182 31.0265 173.467C32.2093 174.741 33.5741 175.924 35.1209 177.198C35.2118 177.288 35.3028 177.357 35.3938 177.425C35.4848 177.493 35.5758 177.561 35.6668 177.652C37.3045 179.017 39.0333 180.291 40.944 181.474C41.035 181.519 41.126 181.588 41.217 181.656C41.308 181.724 41.399 181.792 41.4899 181.838C48.223 186.114 56.7757 189.663 67.5122 191.209C67.6032 191.209 67.7169 191.232 67.8307 191.255C67.9444 191.278 68.0581 191.3 68.1491 191.3C70.0598 191.573 72.0615 191.846 74.1542 191.937ZM112.187 241.889C112.187 240.706 111.368 239.615 110.276 239.251L109.73 239.069L110.367 241.98H112.096L112.187 241.889ZM99.6306 232.881C99.5396 232.427 99.0846 232.154 98.6297 232.154C98.5387 232.154 98.5387 232.245 98.6297 232.063C98.3568 232.063 98.1748 232.245 97.9928 232.427C97.8108 232.609 97.7198 232.881 97.7198 233.154C97.6289 234.246 96.901 236.248 94.8992 236.43H94.7173C94.0804 236.43 93.5344 236.43 93.0795 236.248C91.2598 235.793 90.077 234.337 89.531 233.518C89.44 233.336 89.3491 233.154 89.2581 233.063C89.1671 233.063 88.9851 233.063 88.8941 233.154C87.6203 233.7 86.8924 234.701 86.5285 235.611C87.0744 235.702 87.5293 235.884 87.8933 236.157C88.4392 236.521 88.8031 237.067 88.9851 237.704C89.1671 237.977 89.1671 238.341 89.1671 238.614C89.1671 238.978 89.0761 239.342 88.9851 239.615L106.546 239.706C106.637 239.706 106.819 239.796 106.819 239.978C106.819 240.16 106.637 240.342 106.455 240.342L88.3482 240.251H85.8006V241.616C85.8006 241.707 85.8915 241.707 85.8915 241.707L109.639 241.889L108.911 238.705L100.813 235.975C100.722 235.975 100.631 235.884 100.631 235.793L99.6306 232.881ZM89.531 229.06L89.44 232.518C89.531 232.609 89.622 232.609 89.622 232.518C89.622 232.609 91.3508 236.157 94.6263 235.793C96.537 235.702 96.901 233.336 96.901 233.154C96.901 232.518 97.2649 231.972 97.8108 231.699L97.9018 229.06H89.531ZM106.091 188.298C106.364 184.204 106.546 180.2 106.637 176.47V174.468C106.637 166.552 105.909 160.092 103.907 156.998C99.5396 150.265 93.0795 146.808 88.6212 145.17H40.5801C40.3981 145.17 40.3071 145.079 40.3071 144.897V143.168H39.9432C39.8067 143.168 39.693 143.146 39.5792 143.123C39.4655 143.1 39.3518 143.077 39.2153 143.077C39.1243 142.986 38.9423 142.986 38.8513 142.986C38.7603 142.895 38.6694 142.895 38.5784 142.895H38.1234C38.0324 144.169 38.0324 149.537 42.6728 154.269C49.3148 161.184 62.7809 163.822 81.4332 162.094C81.4787 162.094 81.5014 162.116 81.5242 162.139C81.5469 162.162 81.5697 162.185 81.6152 162.185C81.7062 162.185 81.7061 162.276 81.7061 162.367L83.7079 191.937V192.574L85.9825 226.421C86.0735 227.604 87.0744 228.514 88.2572 228.514H99.3576C100.176 228.514 100.904 228.059 101.268 227.331C101.394 227.206 101.433 227.037 101.475 226.854C101.494 226.772 101.513 226.688 101.541 226.603C102.36 221.326 104.908 204.767 106 188.935C106.091 188.753 106.091 188.48 106.091 188.298ZM109.366 187.115C108.729 184.294 108.092 181.474 107.273 178.653L107.265 178.919C107.177 181.843 107.083 184.934 106.819 188.025C107.346 187.867 107.843 187.678 108.327 187.494C108.678 187.361 109.022 187.23 109.366 187.115ZM141.394 241.889C141.394 240.706 140.575 239.615 139.483 239.251L138.846 239.069L139.483 241.98H141.303L141.394 241.889ZM128.837 232.881C128.746 232.427 128.291 232.154 127.836 232.154C127.564 232.154 127.382 232.336 127.2 232.518C127.018 232.699 126.927 232.972 126.927 233.245C126.836 234.337 126.108 236.339 124.106 236.521H123.924C123.287 236.612 122.741 236.521 122.195 236.339C120.467 235.884 119.284 234.428 118.738 233.609C118.647 233.427 118.556 233.245 118.465 233.154C118.374 233.154 118.192 233.154 118.101 233.245C116.827 233.7 116.19 234.61 115.735 235.611C116.19 235.702 116.645 235.884 117.009 236.157C117.464 236.521 117.919 237.067 118.101 237.704C118.283 237.977 118.283 238.341 118.283 238.614C118.283 238.978 118.192 239.342 118.101 239.615L135.661 239.706C135.843 239.706 135.934 239.796 135.934 239.978C135.934 240.16 135.843 240.342 135.661 240.342L117.555 240.251H115.007V241.616C115.007 241.707 115.098 241.707 115.098 241.707L138.846 241.889L138.118 238.705L130.02 235.975C129.929 235.975 129.838 235.884 129.838 235.793L128.837 232.881ZM118.738 229.151L118.647 232.518C118.738 232.609 118.738 232.609 118.829 232.609C118.829 232.7 120.467 236.248 123.833 235.884C125.744 235.793 126.108 233.427 126.108 233.245C126.108 232.609 126.472 232.063 127.018 231.79L127.109 229.151H118.738ZM129.929 227.786C130.384 227.331 130.566 226.785 130.566 226.148C130.337 221.408 128.308 185.565 127.288 167.547L127.287 167.533L127.286 167.501C127.093 164.1 126.937 161.339 126.836 159.546C126.563 154.178 123.469 149.81 119.011 146.899C116.367 145.022 113.882 144.105 112.982 143.773L112.928 143.753C112.89 143.739 112.855 143.726 112.824 143.714L112.46 144.897C112.46 144.988 112.369 145.079 112.187 145.079H90.2589C94.6263 146.899 100.267 150.356 104.362 156.543C106.637 160.001 107.364 167.553 107.273 176.561C108.274 179.927 109.184 183.385 109.912 186.842C110.003 187.024 110.094 187.297 110.094 187.479C113.643 204.039 114.552 220.325 114.825 226.33C114.825 227.604 115.826 228.514 117.009 228.514H128.291C128.928 228.514 129.474 228.241 129.929 227.786ZM113.006 143.077C113.643 143.259 115.917 144.078 118.374 145.625C116.918 143.168 115.462 140.894 114.188 139.256C114.188 139.347 113.643 141.167 113.461 141.713L113.006 143.077ZM72.3345 141.258H112.915C113.692 138.764 114.541 136.017 115.419 133.175L115.42 133.172C117.521 126.374 119.789 119.035 121.649 113.325C121.649 113.143 121.649 112.961 121.558 112.87C121.467 112.779 121.285 112.688 121.103 112.688H82.2521C82.0701 112.688 81.9791 112.688 81.7971 112.779C81.3422 112.961 80.9783 113.325 80.7963 113.78C75.1625 132.028 74.1446 135.358 73.4988 137.47L73.4985 137.471C73.185 138.496 72.959 139.236 72.3345 141.258Z" fill="#2D2650"/>
<path fill-rule="evenodd" clip-rule="evenodd" d="M87.4383 98.9488C87.2564 98.6758 87.0744 98.4938 86.8924 98.3119C86.7222 98.4821 86.5166 98.6169 86.2978 98.7604C86.1656 98.8471 86.0286 98.937 85.8915 99.0398C85.2546 99.4947 82.98 99.5857 80.4323 99.5857C78.2486 99.5857 75.883 99.4947 74.0633 99.4037C77.7027 104.317 80.6143 109.412 82.0701 112.233H97.6289C94.8992 107.956 92.2606 104.226 90.3499 102.315C89.44 101.314 88.4392 100.132 87.4383 98.9488ZM71.6066 141.531V141.44L73.2444 136.344L71.4246 135.526C71.3797 135.517 71.3357 135.508 71.2924 135.499L71.2307 135.486C70.8615 135.41 70.5393 135.344 70.1508 135.344C70.1508 135.344 61.5071 134.252 61.4161 134.252C60.2332 135.071 59.2324 136.253 58.5045 137.345C57.7766 138.437 57.6856 139.62 58.0496 140.621C58.0496 140.681 58.1304 140.823 58.2113 140.965C58.2518 141.035 58.2922 141.106 58.3225 141.167C58.3225 141.167 58.7775 141.44 58.8684 141.531H66.9663L62.6899 140.075L62.4169 139.984H62.3259C62.235 139.893 62.144 139.802 62.235 139.62L62.3259 139.529C62.4169 139.438 62.5989 139.438 62.6899 139.438H62.7809L63.1448 139.529L69.059 141.531H71.6066ZM86.5285 97.8569C84.0718 94.9453 80.9783 91.5788 76.2469 88.7582L61.1431 87.8484C65.6925 89.6681 69.9688 94.0355 73.6083 98.7668C78.6126 98.9488 84.7087 99.0398 85.7096 98.4938C85.9825 98.3119 86.2555 98.1299 86.5285 97.8569ZM79.3405 88.7582C79.2495 88.8492 79.1585 88.8492 79.0675 88.8492L77.7027 88.7582C81.8881 91.4878 84.7997 94.5814 87.0744 97.311C91.9877 92.7617 97.8108 79.5686 99.5396 75.5651C99.3576 75.6561 99.1756 75.6561 98.9937 75.6561H98.5387C97.7198 75.5651 96.992 75.1102 96.992 75.1102C95.5362 74.4733 94.4443 73.4724 93.4435 72.2896C93.3872 72.2896 93.3657 72.2549 93.3361 72.2068C93.3177 72.1771 93.2962 72.1424 93.2615 72.1076C93.2615 72.0621 93.2387 72.0394 93.216 72.0167C93.1932 71.9939 93.1705 71.9712 93.1705 71.9257C93.0795 71.8347 92.9885 71.6527 92.8975 71.4707L79.3405 88.7582ZM112.187 241.889C112.187 240.706 111.368 239.615 110.276 239.251L109.73 239.069L110.367 241.98H112.096L112.187 241.889ZM89.531 229.06L89.44 232.518C89.531 232.609 89.622 232.609 89.622 232.518C89.622 232.609 91.3508 236.157 94.6263 235.793C96.537 235.702 96.901 233.336 96.901 233.154C96.901 232.518 97.2649 231.972 97.8108 231.699L97.9018 229.06H89.531ZM107.265 178.919C107.177 181.843 107.083 184.934 106.819 188.025C107.346 187.867 107.843 187.678 108.327 187.494C108.678 187.361 109.022 187.23 109.366 187.115C108.729 184.294 108.092 181.474 107.273 178.653L107.265 178.919ZM141.394 241.889C141.394 240.706 140.575 239.615 139.483 239.251L138.846 239.069L139.483 241.98H141.303L141.394 241.889ZM118.738 229.151L118.647 232.518C118.738 232.609 118.738 232.609 118.829 232.609C118.829 232.7 120.467 236.248 123.833 235.884C125.744 235.793 126.108 233.427 126.108 233.245C126.108 232.609 126.472 232.063 127.018 231.79L127.109 229.151H118.738ZM113.006 143.077C113.643 143.259 115.917 144.078 118.374 145.625C116.918 143.168 115.462 140.894 114.188 139.256C114.188 139.347 113.643 141.167 113.461 141.713L113.006 143.077Z" fill="white"/>
<path d="M93.3525 61.2802C93.3525 61.1892 93.4435 61.1892 93.4435 61.1892C94.4443 61.0982 95.405 62.554 95.678 64.3738C95.678 64.3738 96.81 66.5574 96.446 67.5583C96.355 67.7403 96.446 67.9222 96.628 67.9222H96.719C96.81 67.9222 96.992 67.8313 96.992 67.7403C97.2721 66.9697 97.1748 65.8756 97.1152 65.2052C97.0974 65.0049 97.0829 64.8424 97.0829 64.7377L97.1214 64.6706C97.5737 63.8829 99.5312 60.4738 99.2666 58.0047C99.2666 57.7317 99.2666 57.2768 99.4486 57.0948C99.512 57.0314 99.6197 57.0564 99.7099 57.0774C99.7491 57.0865 99.785 57.0948 99.8125 57.0948C100.086 57.3678 100.722 59.8244 100.449 60.6433C100.449 60.8253 100.54 61.0072 100.631 61.0072C100.813 61.0982 100.995 61.0072 100.995 60.8253L101.086 60.5523C101.541 59.3695 101.905 58.2776 101.905 57.8227C101.905 57.7317 101.996 57.6407 102.087 57.6407C102.269 57.6407 102.633 57.9137 102.724 58.9145C102.633 59.2785 102.178 60.6433 101.541 61.7351C101.45 61.9171 101.541 62.0991 101.632 62.1901H101.814C101.905 62.1901 101.996 62.0991 102.087 62.0081C102.815 60.8253 103.179 59.4605 103.27 59.0965C103.543 58.9145 103.725 58.8235 103.816 58.8235C103.998 58.9145 104.089 59.7334 103.998 60.3703C103.907 60.6433 103.27 62.1901 102.724 63.0999C102.633 63.2819 102.633 63.4639 102.815 63.5549C102.861 63.5549 102.883 63.5776 102.906 63.6004C102.929 63.6231 102.952 63.6459 102.997 63.6459C103.088 63.6459 103.179 63.5549 103.27 63.4639C103.777 62.6675 104.284 61.4679 104.515 60.9193C104.575 60.7784 104.616 60.6805 104.635 60.6433C104.817 60.4613 104.908 60.4613 105.181 60.5523C105.636 60.7343 105.636 62.0081 104.453 65.1017C104.374 65.2598 104.302 65.418 104.232 65.5739C104.059 65.9563 103.892 66.3253 103.634 66.6484C103.499 66.8428 103.335 67.0863 103.15 67.3616C102.207 68.7616 100.71 70.9833 99.7216 71.7437L99.6306 71.8347C99.6062 71.8834 99.5818 71.9257 99.5592 71.9649C99.4974 72.0719 99.4486 72.1564 99.4486 72.2896C99.3607 72.2018 99.2729 72.1045 99.182 72.0039C98.9905 71.7918 98.7855 71.5648 98.5387 71.3797C96.901 69.9239 95.1722 69.56 94.0804 69.742C94.2623 68.7411 94.3533 67.5583 94.1713 66.7394C94.0804 66.4665 93.9894 66.1025 93.8984 65.7386C93.8426 65.4408 93.7715 65.1012 93.6969 64.7446L93.6959 64.7396C93.6599 64.5678 93.6232 64.3921 93.5869 64.2153C93.3307 62.9658 93.0992 61.6602 93.3525 61.2802Z" fill="white"/>
<path fill-rule="evenodd" clip-rule="evenodd" d="M109.834 46.1308H115.384C115.93 46.1308 116.385 46.5858 116.385 47.1317V69.3325C116.385 70.2423 117.113 70.9702 118.022 70.9702H129.032C129.942 70.9702 130.67 70.2423 130.67 69.3325V47.1317C130.67 46.5858 131.125 46.1308 131.671 46.1308H137.221C137.858 46.1308 138.404 45.7669 138.677 45.2209C138.949 44.675 138.949 44.0381 138.586 43.4922L124.937 23.4751C124.665 23.0202 124.119 22.7472 123.573 22.7472C123.027 22.7472 122.481 23.0202 122.208 23.4751L108.56 43.4922C108.196 44.0381 108.196 44.675 108.469 45.2209C108.651 45.7669 109.197 46.1308 109.834 46.1308ZM122.663 23.839L109.015 43.8561C108.833 44.2201 108.742 44.584 108.833 44.857C109.015 45.221 109.379 45.4029 109.743 45.4029H115.293C116.203 45.4029 116.931 46.1308 116.931 47.0407V69.2415C116.931 69.7874 117.386 70.2423 117.932 70.2423H128.941C129.487 70.2423 129.942 69.7874 129.942 69.2415V47.0407C129.942 46.1308 130.67 45.4029 131.58 45.4029H137.13C137.494 45.4029 137.858 45.221 138.04 44.857C138.222 44.584 138.131 44.2201 137.949 43.8561L124.301 23.839C124.119 23.5661 123.846 23.3841 123.482 23.3841C123.118 23.3841 122.845 23.5661 122.663 23.839Z" fill="#2D2650"/>
</g>
</g>
<defs>
<clipPath id="clip0_4101_1305">
<rect width="341" height="250" fill="white"/>
</clipPath>
<clipPath id="clip1_4101_1305">
<rect width="466.763" height="287.519" fill="white" transform="translate(2.72949 -44.583)"/>
</clipPath>
</defs>
</svg>
