<svg width="745" height="51" viewBox="0 0 745 51" fill="none" xmlns="http://www.w3.org/2000/svg">
<mask id="path-1-outside-1_4187_2416" maskUnits="userSpaceOnUse" x="0.494629" y="0.282959" width="744" height="50" fill="black">
<rect fill="white" x="0.494629" y="0.282959" width="744" height="50"/>
<path d="M1.49463 43.283V37.283H13.4946V13.283H7.49463V7.28296H13.4946V1.28296H25.4946V37.283H37.4946V43.283H1.49463ZM57.8946 43.283V37.283H51.8946V31.283H45.8946V13.283H51.8946V7.28296H57.8946V1.28296H81.8946V7.28296H87.8946V13.283H75.8946V7.28296H63.8946V13.283H57.8946V31.283H63.8946V37.283H75.8946V31.283H87.8946V37.283H81.8946V43.283H57.8946ZM108.295 19.283V7.28296H120.295V19.283H108.295ZM108.295 37.283V25.283H120.295V37.283H108.295ZM197.095 43.283V1.28296H239.095V43.283H227.095V7.28296H209.095V43.283H197.095ZM247.495 43.283V1.28296H283.495V7.28296H289.495V25.283H283.495V31.283H259.495V43.283H247.495ZM259.495 25.283H277.495V7.28296H259.495V25.283ZM297.895 43.283V1.28296H339.895V7.28296H309.895V19.283H333.895V25.283H309.895V37.283H339.895V43.283H297.895ZM348.295 49.283V37.283H354.295V25.283H360.295V1.28296H390.295V37.283H396.295V49.283H384.295V43.283H360.295V49.283H348.295ZM366.295 37.283H378.295V7.28296H366.295V37.283ZM398.695 43.283V1.28296H440.695V43.283H428.695V7.28296H410.695V43.283H398.695ZM449.095 43.283V1.28296H485.095V7.28296H491.095V25.283H485.095V31.283H461.095V43.283H449.095ZM461.095 25.283H479.095V7.28296H461.095V25.283ZM499.495 43.283V1.28296H511.495V25.283H517.495V19.283H523.495V13.283H529.495V1.28296H541.495V43.283H529.495V25.283H523.495V31.283H517.495V37.283H511.495V43.283H499.495ZM549.895 43.283V37.283H555.895V31.283H561.895V25.283H549.895V7.28296H555.895V1.28296H591.895V43.283H579.895V31.283H567.895V43.283H549.895ZM567.895 25.283H579.895V7.28296H561.895V19.283H567.895V25.283ZM618.295 43.283V7.28296H606.295V1.28296H642.295V7.28296H630.295V43.283H618.295ZM650.695 43.283V1.28296H662.695V25.283H668.695V19.283H674.695V13.283H680.695V1.28296H692.695V43.283H680.695V25.283H674.695V31.283H668.695V37.283H662.695V43.283H650.695ZM701.095 43.283V1.28296H743.095V7.28296H713.095V19.283H737.095V25.283H713.095V37.283H743.095V43.283H701.095Z"/>
</mask>
<path d="M1.49463 43.283H0.494629V44.283H1.49463V43.283ZM1.49463 37.283V36.283H0.494629V37.283H1.49463ZM13.4946 37.283V38.283H14.4946V37.283H13.4946ZM13.4946 13.283H14.4946V12.283H13.4946V13.283ZM7.49463 13.283H6.49463V14.283H7.49463V13.283ZM7.49463 7.28296V6.28296H6.49463V7.28296H7.49463ZM13.4946 7.28296V8.28296H14.4946V7.28296H13.4946ZM13.4946 1.28296V0.282959H12.4946V1.28296H13.4946ZM25.4946 1.28296H26.4946V0.282959H25.4946V1.28296ZM25.4946 37.283H24.4946V38.283H25.4946V37.283ZM37.4946 37.283H38.4946V36.283H37.4946V37.283ZM37.4946 43.283V44.283H38.4946V43.283H37.4946ZM2.49463 43.283V37.283H0.494629V43.283H2.49463ZM1.49463 38.283H13.4946V36.283H1.49463V38.283ZM14.4946 37.283V13.283H12.4946V37.283H14.4946ZM13.4946 12.283H7.49463V14.283H13.4946V12.283ZM8.49463 13.283V7.28296H6.49463V13.283H8.49463ZM7.49463 8.28296H13.4946V6.28296H7.49463V8.28296ZM14.4946 7.28296V1.28296H12.4946V7.28296H14.4946ZM13.4946 2.28296H25.4946V0.282959H13.4946V2.28296ZM24.4946 1.28296V37.283H26.4946V1.28296H24.4946ZM25.4946 38.283H37.4946V36.283H25.4946V38.283ZM36.4946 37.283V43.283H38.4946V37.283H36.4946ZM37.4946 42.283H1.49463V44.283H37.4946V42.283ZM57.8946 43.283H56.8946V44.283H57.8946V43.283ZM57.8946 37.283H58.8946V36.283H57.8946V37.283ZM51.8946 37.283H50.8946V38.283H51.8946V37.283ZM51.8946 31.283H52.8946V30.283H51.8946V31.283ZM45.8946 31.283H44.8946V32.283H45.8946V31.283ZM45.8946 13.283V12.283H44.8946V13.283H45.8946ZM51.8946 13.283V14.283H52.8946V13.283H51.8946ZM51.8946 7.28296V6.28296H50.8946V7.28296H51.8946ZM57.8946 7.28296V8.28296H58.8946V7.28296H57.8946ZM57.8946 1.28296V0.282959H56.8946V1.28296H57.8946ZM81.8946 1.28296H82.8946V0.282959H81.8946V1.28296ZM81.8946 7.28296H80.8946V8.28296H81.8946V7.28296ZM87.8946 7.28296H88.8946V6.28296H87.8946V7.28296ZM87.8946 13.283V14.283H88.8946V13.283H87.8946ZM75.8946 13.283H74.8946V14.283H75.8946V13.283ZM75.8946 7.28296H76.8946V6.28296H75.8946V7.28296ZM63.8946 7.28296V6.28296H62.8946V7.28296H63.8946ZM63.8946 13.283V14.283H64.8946V13.283H63.8946ZM57.8946 13.283V12.283H56.8946V13.283H57.8946ZM57.8946 31.283H56.8946V32.283H57.8946V31.283ZM63.8946 31.283H64.8946V30.283H63.8946V31.283ZM63.8946 37.283H62.8946V38.283H63.8946V37.283ZM75.8946 37.283V38.283H76.8946V37.283H75.8946ZM75.8946 31.283V30.283H74.8946V31.283H75.8946ZM87.8946 31.283H88.8946V30.283H87.8946V31.283ZM87.8946 37.283V38.283H88.8946V37.283H87.8946ZM81.8946 37.283V36.283H80.8946V37.283H81.8946ZM81.8946 43.283V44.283H82.8946V43.283H81.8946ZM58.8946 43.283V37.283H56.8946V43.283H58.8946ZM57.8946 36.283H51.8946V38.283H57.8946V36.283ZM52.8946 37.283V31.283H50.8946V37.283H52.8946ZM51.8946 30.283H45.8946V32.283H51.8946V30.283ZM46.8946 31.283V13.283H44.8946V31.283H46.8946ZM45.8946 14.283H51.8946V12.283H45.8946V14.283ZM52.8946 13.283V7.28296H50.8946V13.283H52.8946ZM51.8946 8.28296H57.8946V6.28296H51.8946V8.28296ZM58.8946 7.28296V1.28296H56.8946V7.28296H58.8946ZM57.8946 2.28296H81.8946V0.282959H57.8946V2.28296ZM80.8946 1.28296V7.28296H82.8946V1.28296H80.8946ZM81.8946 8.28296H87.8946V6.28296H81.8946V8.28296ZM86.8946 7.28296V13.283H88.8946V7.28296H86.8946ZM87.8946 12.283H75.8946V14.283H87.8946V12.283ZM76.8946 13.283V7.28296H74.8946V13.283H76.8946ZM75.8946 6.28296H63.8946V8.28296H75.8946V6.28296ZM62.8946 7.28296V13.283H64.8946V7.28296H62.8946ZM63.8946 12.283H57.8946V14.283H63.8946V12.283ZM56.8946 13.283V31.283H58.8946V13.283H56.8946ZM57.8946 32.283H63.8946V30.283H57.8946V32.283ZM62.8946 31.283V37.283H64.8946V31.283H62.8946ZM63.8946 38.283H75.8946V36.283H63.8946V38.283ZM76.8946 37.283V31.283H74.8946V37.283H76.8946ZM75.8946 32.283H87.8946V30.283H75.8946V32.283ZM86.8946 31.283V37.283H88.8946V31.283H86.8946ZM87.8946 36.283H81.8946V38.283H87.8946V36.283ZM80.8946 37.283V43.283H82.8946V37.283H80.8946ZM81.8946 42.283H57.8946V44.283H81.8946V42.283ZM108.295 19.283H107.295V20.283H108.295V19.283ZM108.295 7.28296V6.28296H107.295V7.28296H108.295ZM120.295 7.28296H121.295V6.28296H120.295V7.28296ZM120.295 19.283V20.283H121.295V19.283H120.295ZM108.295 37.283H107.295V38.283H108.295V37.283ZM108.295 25.283V24.283H107.295V25.283H108.295ZM120.295 25.283H121.295V24.283H120.295V25.283ZM120.295 37.283V38.283H121.295V37.283H120.295ZM109.295 19.283V7.28296H107.295V19.283H109.295ZM108.295 8.28296H120.295V6.28296H108.295V8.28296ZM119.295 7.28296V19.283H121.295V7.28296H119.295ZM120.295 18.283H108.295V20.283H120.295V18.283ZM109.295 37.283V25.283H107.295V37.283H109.295ZM108.295 26.283H120.295V24.283H108.295V26.283ZM119.295 25.283V37.283H121.295V25.283H119.295ZM120.295 36.283H108.295V38.283H120.295V36.283ZM197.095 43.283H196.095V44.283H197.095V43.283ZM197.095 1.28296V0.282959H196.095V1.28296H197.095ZM239.095 1.28296H240.095V0.282959H239.095V1.28296ZM239.095 43.283V44.283H240.095V43.283H239.095ZM227.095 43.283H226.095V44.283H227.095V43.283ZM227.095 7.28296H228.095V6.28296H227.095V7.28296ZM209.095 7.28296V6.28296H208.095V7.28296H209.095ZM209.095 43.283V44.283H210.095V43.283H209.095ZM198.095 43.283V1.28296H196.095V43.283H198.095ZM197.095 2.28296H239.095V0.282959H197.095V2.28296ZM238.095 1.28296V43.283H240.095V1.28296H238.095ZM239.095 42.283H227.095V44.283H239.095V42.283ZM228.095 43.283V7.28296H226.095V43.283H228.095ZM227.095 6.28296H209.095V8.28296H227.095V6.28296ZM208.095 7.28296V43.283H210.095V7.28296H208.095ZM209.095 42.283H197.095V44.283H209.095V42.283ZM247.495 43.283H246.495V44.283H247.495V43.283ZM247.495 1.28296V0.282959H246.495V1.28296H247.495ZM283.495 1.28296H284.495V0.282959H283.495V1.28296ZM283.495 7.28296H282.495V8.28296H283.495V7.28296ZM289.495 7.28296H290.495V6.28296H289.495V7.28296ZM289.495 25.283V26.283H290.495V25.283H289.495ZM283.495 25.283V24.283H282.495V25.283H283.495ZM283.495 31.283V32.283H284.495V31.283H283.495ZM259.495 31.283V30.283H258.495V31.283H259.495ZM259.495 43.283V44.283H260.495V43.283H259.495ZM259.495 25.283H258.495V26.283H259.495V25.283ZM277.495 25.283V26.283H278.495V25.283H277.495ZM277.495 7.28296H278.495V6.28296H277.495V7.28296ZM259.495 7.28296V6.28296H258.495V7.28296H259.495ZM248.495 43.283V1.28296H246.495V43.283H248.495ZM247.495 2.28296H283.495V0.282959H247.495V2.28296ZM282.495 1.28296V7.28296H284.495V1.28296H282.495ZM283.495 8.28296H289.495V6.28296H283.495V8.28296ZM288.495 7.28296V25.283H290.495V7.28296H288.495ZM289.495 24.283H283.495V26.283H289.495V24.283ZM282.495 25.283V31.283H284.495V25.283H282.495ZM283.495 30.283H259.495V32.283H283.495V30.283ZM258.495 31.283V43.283H260.495V31.283H258.495ZM259.495 42.283H247.495V44.283H259.495V42.283ZM259.495 26.283H277.495V24.283H259.495V26.283ZM278.495 25.283V7.28296H276.495V25.283H278.495ZM277.495 6.28296H259.495V8.28296H277.495V6.28296ZM258.495 7.28296V25.283H260.495V7.28296H258.495ZM297.895 43.283H296.895V44.283H297.895V43.283ZM297.895 1.28296V0.282959H296.895V1.28296H297.895ZM339.895 1.28296H340.895V0.282959H339.895V1.28296ZM339.895 7.28296V8.28296H340.895V7.28296H339.895ZM309.895 7.28296V6.28296H308.895V7.28296H309.895ZM309.895 19.283H308.895V20.283H309.895V19.283ZM333.895 19.283H334.895V18.283H333.895V19.283ZM333.895 25.283V26.283H334.895V25.283H333.895ZM309.895 25.283V24.283H308.895V25.283H309.895ZM309.895 37.283H308.895V38.283H309.895V37.283ZM339.895 37.283H340.895V36.283H339.895V37.283ZM339.895 43.283V44.283H340.895V43.283H339.895ZM298.895 43.283V1.28296H296.895V43.283H298.895ZM297.895 2.28296H339.895V0.282959H297.895V2.28296ZM338.895 1.28296V7.28296H340.895V1.28296H338.895ZM339.895 6.28296H309.895V8.28296H339.895V6.28296ZM308.895 7.28296V19.283H310.895V7.28296H308.895ZM309.895 20.283H333.895V18.283H309.895V20.283ZM332.895 19.283V25.283H334.895V19.283H332.895ZM333.895 24.283H309.895V26.283H333.895V24.283ZM308.895 25.283V37.283H310.895V25.283H308.895ZM309.895 38.283H339.895V36.283H309.895V38.283ZM338.895 37.283V43.283H340.895V37.283H338.895ZM339.895 42.283H297.895V44.283H339.895V42.283ZM348.295 49.283H347.295V50.283H348.295V49.283ZM348.295 37.283V36.283H347.295V37.283H348.295ZM354.295 37.283V38.283H355.295V37.283H354.295ZM354.295 25.283V24.283H353.295V25.283H354.295ZM360.295 25.283V26.283H361.295V25.283H360.295ZM360.295 1.28296V0.282959H359.295V1.28296H360.295ZM390.295 1.28296H391.295V0.282959H390.295V1.28296ZM390.295 37.283H389.295V38.283H390.295V37.283ZM396.295 37.283H397.295V36.283H396.295V37.283ZM396.295 49.283V50.283H397.295V49.283H396.295ZM384.295 49.283H383.295V50.283H384.295V49.283ZM384.295 43.283H385.295V42.283H384.295V43.283ZM360.295 43.283V42.283H359.295V43.283H360.295ZM360.295 49.283V50.283H361.295V49.283H360.295ZM366.295 37.283H365.295V38.283H366.295V37.283ZM378.295 37.283V38.283H379.295V37.283H378.295ZM378.295 7.28296H379.295V6.28296H378.295V7.28296ZM366.295 7.28296V6.28296H365.295V7.28296H366.295ZM349.295 49.283V37.283H347.295V49.283H349.295ZM348.295 38.283H354.295V36.283H348.295V38.283ZM355.295 37.283V25.283H353.295V37.283H355.295ZM354.295 26.283H360.295V24.283H354.295V26.283ZM361.295 25.283V1.28296H359.295V25.283H361.295ZM360.295 2.28296H390.295V0.282959H360.295V2.28296ZM389.295 1.28296V37.283H391.295V1.28296H389.295ZM390.295 38.283H396.295V36.283H390.295V38.283ZM395.295 37.283V49.283H397.295V37.283H395.295ZM396.295 48.283H384.295V50.283H396.295V48.283ZM385.295 49.283V43.283H383.295V49.283H385.295ZM384.295 42.283H360.295V44.283H384.295V42.283ZM359.295 43.283V49.283H361.295V43.283H359.295ZM360.295 48.283H348.295V50.283H360.295V48.283ZM366.295 38.283H378.295V36.283H366.295V38.283ZM379.295 37.283V7.28296H377.295V37.283H379.295ZM378.295 6.28296H366.295V8.28296H378.295V6.28296ZM365.295 7.28296V37.283H367.295V7.28296H365.295ZM398.695 43.283H397.695V44.283H398.695V43.283ZM398.695 1.28296V0.282959H397.695V1.28296H398.695ZM440.695 1.28296H441.695V0.282959H440.695V1.28296ZM440.695 43.283V44.283H441.695V43.283H440.695ZM428.695 43.283H427.695V44.283H428.695V43.283ZM428.695 7.28296H429.695V6.28296H428.695V7.28296ZM410.695 7.28296V6.28296H409.695V7.28296H410.695ZM410.695 43.283V44.283H411.695V43.283H410.695ZM399.695 43.283V1.28296H397.695V43.283H399.695ZM398.695 2.28296H440.695V0.282959H398.695V2.28296ZM439.695 1.28296V43.283H441.695V1.28296H439.695ZM440.695 42.283H428.695V44.283H440.695V42.283ZM429.695 43.283V7.28296H427.695V43.283H429.695ZM428.695 6.28296H410.695V8.28296H428.695V6.28296ZM409.695 7.28296V43.283H411.695V7.28296H409.695ZM410.695 42.283H398.695V44.283H410.695V42.283ZM449.095 43.283H448.095V44.283H449.095V43.283ZM449.095 1.28296V0.282959H448.095V1.28296H449.095ZM485.095 1.28296H486.095V0.282959H485.095V1.28296ZM485.095 7.28296H484.095V8.28296H485.095V7.28296ZM491.095 7.28296H492.095V6.28296H491.095V7.28296ZM491.095 25.283V26.283H492.095V25.283H491.095ZM485.095 25.283V24.283H484.095V25.283H485.095ZM485.095 31.283V32.283H486.095V31.283H485.095ZM461.095 31.283V30.283H460.095V31.283H461.095ZM461.095 43.283V44.283H462.095V43.283H461.095ZM461.095 25.283H460.095V26.283H461.095V25.283ZM479.095 25.283V26.283H480.095V25.283H479.095ZM479.095 7.28296H480.095V6.28296H479.095V7.28296ZM461.095 7.28296V6.28296H460.095V7.28296H461.095ZM450.095 43.283V1.28296H448.095V43.283H450.095ZM449.095 2.28296H485.095V0.282959H449.095V2.28296ZM484.095 1.28296V7.28296H486.095V1.28296H484.095ZM485.095 8.28296H491.095V6.28296H485.095V8.28296ZM490.095 7.28296V25.283H492.095V7.28296H490.095ZM491.095 24.283H485.095V26.283H491.095V24.283ZM484.095 25.283V31.283H486.095V25.283H484.095ZM485.095 30.283H461.095V32.283H485.095V30.283ZM460.095 31.283V43.283H462.095V31.283H460.095ZM461.095 42.283H449.095V44.283H461.095V42.283ZM461.095 26.283H479.095V24.283H461.095V26.283ZM480.095 25.283V7.28296H478.095V25.283H480.095ZM479.095 6.28296H461.095V8.28296H479.095V6.28296ZM460.095 7.28296V25.283H462.095V7.28296H460.095ZM499.495 43.283H498.495V44.283H499.495V43.283ZM499.495 1.28296V0.282959H498.495V1.28296H499.495ZM511.495 1.28296H512.495V0.282959H511.495V1.28296ZM511.495 25.283H510.495V26.283H511.495V25.283ZM517.495 25.283V26.283H518.495V25.283H517.495ZM517.495 19.283V18.283H516.495V19.283H517.495ZM523.495 19.283V20.283H524.495V19.283H523.495ZM523.495 13.283V12.283H522.495V13.283H523.495ZM529.495 13.283V14.283H530.495V13.283H529.495ZM529.495 1.28296V0.282959H528.495V1.28296H529.495ZM541.495 1.28296H542.495V0.282959H541.495V1.28296ZM541.495 43.283V44.283H542.495V43.283H541.495ZM529.495 43.283H528.495V44.283H529.495V43.283ZM529.495 25.283H530.495V24.283H529.495V25.283ZM523.495 25.283V24.283H522.495V25.283H523.495ZM523.495 31.283V32.283H524.495V31.283H523.495ZM517.495 31.283V30.283H516.495V31.283H517.495ZM517.495 37.283V38.283H518.495V37.283H517.495ZM511.495 37.283V36.283H510.495V37.283H511.495ZM511.495 43.283V44.283H512.495V43.283H511.495ZM500.495 43.283V1.28296H498.495V43.283H500.495ZM499.495 2.28296H511.495V0.282959H499.495V2.28296ZM510.495 1.28296V25.283H512.495V1.28296H510.495ZM511.495 26.283H517.495V24.283H511.495V26.283ZM518.495 25.283V19.283H516.495V25.283H518.495ZM517.495 20.283H523.495V18.283H517.495V20.283ZM524.495 19.283V13.283H522.495V19.283H524.495ZM523.495 14.283H529.495V12.283H523.495V14.283ZM530.495 13.283V1.28296H528.495V13.283H530.495ZM529.495 2.28296H541.495V0.282959H529.495V2.28296ZM540.495 1.28296V43.283H542.495V1.28296H540.495ZM541.495 42.283H529.495V44.283H541.495V42.283ZM530.495 43.283V25.283H528.495V43.283H530.495ZM529.495 24.283H523.495V26.283H529.495V24.283ZM522.495 25.283V31.283H524.495V25.283H522.495ZM523.495 30.283H517.495V32.283H523.495V30.283ZM516.495 31.283V37.283H518.495V31.283H516.495ZM517.495 36.283H511.495V38.283H517.495V36.283ZM510.495 37.283V43.283H512.495V37.283H510.495ZM511.495 42.283H499.495V44.283H511.495V42.283ZM549.895 43.283H548.895V44.283H549.895V43.283ZM549.895 37.283V36.283H548.895V37.283H549.895ZM555.895 37.283V38.283H556.895V37.283H555.895ZM555.895 31.283V30.283H554.895V31.283H555.895ZM561.895 31.283V32.283H562.895V31.283H561.895ZM561.895 25.283H562.895V24.283H561.895V25.283ZM549.895 25.283H548.895V26.283H549.895V25.283ZM549.895 7.28296V6.28296H548.895V7.28296H549.895ZM555.895 7.28296V8.28296H556.895V7.28296H555.895ZM555.895 1.28296V0.282959H554.895V1.28296H555.895ZM591.895 1.28296H592.895V0.282959H591.895V1.28296ZM591.895 43.283V44.283H592.895V43.283H591.895ZM579.895 43.283H578.895V44.283H579.895V43.283ZM579.895 31.283H580.895V30.283H579.895V31.283ZM567.895 31.283V30.283H566.895V31.283H567.895ZM567.895 43.283V44.283H568.895V43.283H567.895ZM567.895 25.283H566.895V26.283H567.895V25.283ZM579.895 25.283V26.283H580.895V25.283H579.895ZM579.895 7.28296H580.895V6.28296H579.895V7.28296ZM561.895 7.28296V6.28296H560.895V7.28296H561.895ZM561.895 19.283H560.895V20.283H561.895V19.283ZM567.895 19.283H568.895V18.283H567.895V19.283ZM550.895 43.283V37.283H548.895V43.283H550.895ZM549.895 38.283H555.895V36.283H549.895V38.283ZM556.895 37.283V31.283H554.895V37.283H556.895ZM555.895 32.283H561.895V30.283H555.895V32.283ZM562.895 31.283V25.283H560.895V31.283H562.895ZM561.895 24.283H549.895V26.283H561.895V24.283ZM550.895 25.283V7.28296H548.895V25.283H550.895ZM549.895 8.28296H555.895V6.28296H549.895V8.28296ZM556.895 7.28296V1.28296H554.895V7.28296H556.895ZM555.895 2.28296H591.895V0.282959H555.895V2.28296ZM590.895 1.28296V43.283H592.895V1.28296H590.895ZM591.895 42.283H579.895V44.283H591.895V42.283ZM580.895 43.283V31.283H578.895V43.283H580.895ZM579.895 30.283H567.895V32.283H579.895V30.283ZM566.895 31.283V43.283H568.895V31.283H566.895ZM567.895 42.283H549.895V44.283H567.895V42.283ZM567.895 26.283H579.895V24.283H567.895V26.283ZM580.895 25.283V7.28296H578.895V25.283H580.895ZM579.895 6.28296H561.895V8.28296H579.895V6.28296ZM560.895 7.28296V19.283H562.895V7.28296H560.895ZM561.895 20.283H567.895V18.283H561.895V20.283ZM566.895 19.283V25.283H568.895V19.283H566.895ZM618.295 43.283H617.295V44.283H618.295V43.283ZM618.295 7.28296H619.295V6.28296H618.295V7.28296ZM606.295 7.28296H605.295V8.28296H606.295V7.28296ZM606.295 1.28296V0.282959H605.295V1.28296H606.295ZM642.295 1.28296H643.295V0.282959H642.295V1.28296ZM642.295 7.28296V8.28296H643.295V7.28296H642.295ZM630.295 7.28296V6.28296H629.295V7.28296H630.295ZM630.295 43.283V44.283H631.295V43.283H630.295ZM619.295 43.283V7.28296H617.295V43.283H619.295ZM618.295 6.28296H606.295V8.28296H618.295V6.28296ZM607.295 7.28296V1.28296H605.295V7.28296H607.295ZM606.295 2.28296H642.295V0.282959H606.295V2.28296ZM641.295 1.28296V7.28296H643.295V1.28296H641.295ZM642.295 6.28296H630.295V8.28296H642.295V6.28296ZM629.295 7.28296V43.283H631.295V7.28296H629.295ZM630.295 42.283H618.295V44.283H630.295V42.283ZM650.695 43.283H649.695V44.283H650.695V43.283ZM650.695 1.28296V0.282959H649.695V1.28296H650.695ZM662.695 1.28296H663.695V0.282959H662.695V1.28296ZM662.695 25.283H661.695V26.283H662.695V25.283ZM668.695 25.283V26.283H669.695V25.283H668.695ZM668.695 19.283V18.283H667.695V19.283H668.695ZM674.695 19.283V20.283H675.695V19.283H674.695ZM674.695 13.283V12.283H673.695V13.283H674.695ZM680.695 13.283V14.283H681.695V13.283H680.695ZM680.695 1.28296V0.282959H679.695V1.28296H680.695ZM692.695 1.28296H693.695V0.282959H692.695V1.28296ZM692.695 43.283V44.283H693.695V43.283H692.695ZM680.695 43.283H679.695V44.283H680.695V43.283ZM680.695 25.283H681.695V24.283H680.695V25.283ZM674.695 25.283V24.283H673.695V25.283H674.695ZM674.695 31.283V32.283H675.695V31.283H674.695ZM668.695 31.283V30.283H667.695V31.283H668.695ZM668.695 37.283V38.283H669.695V37.283H668.695ZM662.695 37.283V36.283H661.695V37.283H662.695ZM662.695 43.283V44.283H663.695V43.283H662.695ZM651.695 43.283V1.28296H649.695V43.283H651.695ZM650.695 2.28296H662.695V0.282959H650.695V2.28296ZM661.695 1.28296V25.283H663.695V1.28296H661.695ZM662.695 26.283H668.695V24.283H662.695V26.283ZM669.695 25.283V19.283H667.695V25.283H669.695ZM668.695 20.283H674.695V18.283H668.695V20.283ZM675.695 19.283V13.283H673.695V19.283H675.695ZM674.695 14.283H680.695V12.283H674.695V14.283ZM681.695 13.283V1.28296H679.695V13.283H681.695ZM680.695 2.28296H692.695V0.282959H680.695V2.28296ZM691.695 1.28296V43.283H693.695V1.28296H691.695ZM692.695 42.283H680.695V44.283H692.695V42.283ZM681.695 43.283V25.283H679.695V43.283H681.695ZM680.695 24.283H674.695V26.283H680.695V24.283ZM673.695 25.283V31.283H675.695V25.283H673.695ZM674.695 30.283H668.695V32.283H674.695V30.283ZM667.695 31.283V37.283H669.695V31.283H667.695ZM668.695 36.283H662.695V38.283H668.695V36.283ZM661.695 37.283V43.283H663.695V37.283H661.695ZM662.695 42.283H650.695V44.283H662.695V42.283ZM701.095 43.283H700.095V44.283H701.095V43.283ZM701.095 1.28296V0.282959H700.095V1.28296H701.095ZM743.095 1.28296H744.095V0.282959H743.095V1.28296ZM743.095 7.28296V8.28296H744.095V7.28296H743.095ZM713.095 7.28296V6.28296H712.095V7.28296H713.095ZM713.095 19.283H712.095V20.283H713.095V19.283ZM737.095 19.283H738.095V18.283H737.095V19.283ZM737.095 25.283V26.283H738.095V25.283H737.095ZM713.095 25.283V24.283H712.095V25.283H713.095ZM713.095 37.283H712.095V38.283H713.095V37.283ZM743.095 37.283H744.095V36.283H743.095V37.283ZM743.095 43.283V44.283H744.095V43.283H743.095ZM702.095 43.283V1.28296H700.095V43.283H702.095ZM701.095 2.28296H743.095V0.282959H701.095V2.28296ZM742.095 1.28296V7.28296H744.095V1.28296H742.095ZM743.095 6.28296H713.095V8.28296H743.095V6.28296ZM712.095 7.28296V19.283H714.095V7.28296H712.095ZM713.095 20.283H737.095V18.283H713.095V20.283ZM736.095 19.283V25.283H738.095V19.283H736.095ZM737.095 24.283H713.095V26.283H737.095V24.283ZM712.095 25.283V37.283H714.095V25.283H712.095ZM713.095 38.283H743.095V36.283H713.095V38.283ZM742.095 37.283V43.283H744.095V37.283H742.095ZM743.095 42.283H701.095V44.283H743.095V42.283Z" fill="#DFDC01" mask="url(#path-1-outside-1_4187_2416)"/>
</svg>
