<svg width="107" height="107" viewBox="0 0 107 107" fill="none" xmlns="http://www.w3.org/2000/svg">
<path d="M65.5503 39.6651C62.5136 37.0672 59.0171 35.6775 56.4109 35.3301L56.3841 41.2083C59.9657 41.9628 62.3888 43.779 63.91 46.066C65.5729 48.566 66.069 51.4896 66.039 53.8863C65.9918 57.6657 64.4621 60.5939 62.1302 62.555C59.8296 64.4898 56.8286 65.4202 53.8792 65.4202C50.9295 65.4202 47.9215 64.4898 45.6027 62.5599C43.2537 60.605 41.6885 57.6835 41.594 53.905L41.5937 53.8915L41.5936 53.878L41.2498 4.78775L41.2425 3.74557L42.2167 3.37516C46.3803 1.7921 52.3887 1.32333 58.9728 2.14753C65.5869 2.97549 72.9152 5.12381 79.7568 8.91002C93.4948 16.5128 105.244 30.7217 105.244 53.8675C105.244 77.0139 91.7581 93.4004 74.437 100.639C57.1574 107.861 35.9757 106.015 20.502 92.7019L20.4831 92.6856L20.4647 92.6687C5.44936 78.8547 0.963572 62.8846 2.54367 48.4477C4.11594 34.0822 11.6845 21.2955 20.6791 13.6848L23.0935 11.6419L23.1478 14.8041L23.8179 53.8418L23.8182 53.8584L23.8181 53.8751C23.7674 63.8976 28.3314 71.4012 34.4293 76.4342C40.5682 81.5011 48.2031 84.0099 54.086 84.0099C59.6953 84.0099 67.3141 81.507 73.5356 76.4297C79.7153 71.3864 84.4341 63.8757 84.4848 53.8599C84.5356 43.8129 80.1586 36.3279 74.4637 31.1817C68.7607 26.0282 61.7824 23.2681 56.7487 22.6966L56.3342 22.6966C56.3276 22.7358 56.3219 22.7905 56.3215 22.8636L56.3994 28.6226C73.3318 31.5851 78.6479 45.3815 78.6049 53.8751C78.5556 63.6091 71.4445 77.0965 54.2283 77.9839C48.8197 78.2627 42.7116 75.8983 37.9369 71.7105C33.1364 67.5001 29.5611 61.3398 29.4031 53.8994L29.4028 53.8834L29.4028 53.8675L29.4028 8.79829L29.4028 7.86937L30.2344 7.45545C30.6841 7.23159 31.3915 6.88662 32.0574 6.57666C32.6665 6.29314 33.3962 5.96425 33.8007 5.84837L35.7364 5.29399L35.7136 7.30738C35.6146 16.0549 35.6145 27.6903 35.6393 37.144C35.6517 41.8698 35.6703 46.0484 35.6858 49.0455C35.6936 50.544 35.7005 51.7471 35.7056 52.5755L35.7115 53.5272L35.7131 53.7736L35.7135 53.8312C36.1902 65.0972 45.5937 71.4675 54.151 71.4675C55.0983 71.4675 59.5993 70.933 63.8346 68.4115C67.9746 65.9468 71.8414 61.6125 71.919 53.8525C71.9835 47.4037 69.1362 42.7328 65.5503 39.6651Z" stroke="#2D2650" stroke-width="3"/>
</svg>
