<svg width="446" height="43" viewBox="0 0 446 43" fill="none" xmlns="http://www.w3.org/2000/svg">
<path d="M0.494629 42.283V0.282959H12.4946V18.283H18.4946V12.283H24.4946V6.28296H30.4946V0.282959H42.4946V6.28296H36.4946V12.283H30.4946V18.283H24.4946V24.283H30.4946V30.283H36.4946V36.283H42.4946V42.283H24.4946V36.283H18.4946V30.283H12.4946V42.283H0.494629ZM50.8946 42.283V12.283H56.8946V6.28296H62.8946V0.282959H80.8946V6.28296H86.8946V12.283H92.8946V42.283H80.8946V30.283H62.8946V42.283H50.8946ZM62.8946 24.283H80.8946V12.283H74.8946V6.28296H68.8946V12.283H62.8946V24.283ZM107.295 42.283V36.283H101.295V30.283H113.295V36.283H131.295V24.283H107.295V18.283H101.295V6.28296H107.295V0.282959H137.295V6.28296H143.295V12.283H131.295V6.28296H113.295V18.283H137.295V24.283H143.295V36.283H137.295V42.283H107.295ZM151.695 42.283V0.282959H187.695V6.28296H193.695V24.283H187.695V30.283H163.695V42.283H151.695ZM163.695 24.283H181.695V6.28296H163.695V24.283ZM202.095 42.283V0.282959H244.095V6.28296H214.095V18.283H238.095V24.283H214.095V36.283H244.095V42.283H202.095ZM252.495 42.283V0.282959H288.495V6.28296H294.495V24.283H282.495V30.283H288.495V36.283H294.495V42.283H276.495V36.283H270.495V30.283H264.495V42.283H252.495ZM264.495 24.283H276.495V18.283H282.495V6.28296H264.495V24.283ZM308.895 42.283V36.283H302.895V30.283H314.895V36.283H332.895V24.283H308.895V18.283H302.895V6.28296H308.895V0.282959H338.895V6.28296H344.895V12.283H332.895V6.28296H314.895V18.283H338.895V24.283H344.895V36.283H338.895V42.283H308.895ZM353.295 42.283V0.282959H365.295V18.283H371.295V12.283H377.295V6.28296H383.295V0.282959H395.295V6.28296H389.295V12.283H383.295V18.283H377.295V24.283H383.295V30.283H389.295V36.283H395.295V42.283H377.295V36.283H371.295V30.283H365.295V42.283H353.295ZM421.695 42.283V24.283H415.695V18.283H409.695V0.282959H421.695V18.283H433.695V0.282959H445.695V18.283H439.695V24.283H433.695V42.283H421.695Z" fill="#DFDC01"/>
</svg>
