<svg width="496" height="43" viewBox="0 0 496 43" fill="none" xmlns="http://www.w3.org/2000/svg">
<path d="M11.9999 42.283V36.283H5.99988V30.283H-0.00012207V12.283H5.99988V6.28296H11.9999V0.282959H35.9999V6.28296H41.9999V12.283H29.9999V6.28296H17.9999V12.283H11.9999V30.283H17.9999V36.283H29.9999V30.283H41.9999V36.283H35.9999V42.283H11.9999ZM68.3999 12.283H74.3999V18.283H80.3999V24.283H86.3999V36.283H92.3999V42.283H80.3999V36.283H74.3999V24.283H62.3999V42.283H50.3999V0.282959H62.3999V18.283H68.3999V12.283ZM92.3999 0.282959V6.28296H86.3999V12.283H74.3999V6.28296H80.3999V0.282959H92.3999ZM100.8 42.283V0.282959H136.8V6.28296H112.8V18.283H136.8V24.283H142.8V36.283H136.8V42.283H100.8ZM112.8 36.283H130.8V24.283H112.8V36.283ZM219.6 12.283H225.6V18.283H231.6V24.283H237.6V36.283H243.6V42.283H231.6V36.283H225.6V24.283H213.6V42.283H201.6V0.282959H213.6V18.283H219.6V12.283ZM243.6 0.282959V6.28296H237.6V12.283H225.6V6.28296H231.6V0.282959H243.6ZM258 42.283V36.283H252V6.28296H258V0.282959H288V6.28296H294V36.283H288V42.283H258ZM264 36.283H282V6.28296H264V36.283ZM302.4 42.283V0.282959H314.4V18.283H332.4V0.282959H344.4V42.283H332.4V24.283H314.4V42.283H302.4ZM370.8 42.283V6.28296H358.8V0.282959H394.8V6.28296H382.8V42.283H370.8ZM409.2 42.283V36.283H403.2V30.283H415.2V36.283H433.2V24.283H409.2V18.283H403.2V0.282959H415.2V18.283H433.2V0.282959H445.2V36.283H439.2V42.283H409.2ZM453.6 42.283V0.282959H489.6V6.28296H495.6V24.283H489.6V30.283H465.6V42.283H453.6ZM465.6 24.283H483.6V6.28296H465.6V24.283Z" fill="#2B2A28"/>
</svg>
