<svg width="103" height="104" viewBox="0 0 103 104" fill="none" xmlns="http://www.w3.org/2000/svg">
<path d="M70.4341 32.6075C64.6886 34.0438 61.0977 34.0438 54.6341 34.7619C48.1705 35.48 34.525 44.7642 34.525 58.4602C34.525 64.0367 34.525 65.6416 33.0886 71.3866M70.4341 32.6075C68.2795 38.3526 68.6379 40.5182 68.2795 46.252C67.5613 57.7421 57.464 67.6566 48.8888 68.5141C41.7068 69.2322 39.5523 69.2322 33.0886 71.3866M70.4341 32.6075C74.4738 21.8355 70.2064 6.82179 57.5068 3.16413M33.0886 71.3866C30.4553 78.8073 27.3418 94.6541 44.578 101.548M44.578 101.548C105.624 111.602 128.605 15.3723 57.5068 3.16413M44.578 101.548C-27.2407 83.5949 1.48765 -7.60786 57.5068 3.16413" stroke="#2D2650" stroke-width="3"/>
</svg>
