<svg width="698" height="49" viewBox="0 0 698 49" fill="none" xmlns="http://www.w3.org/2000/svg">
<path d="M-0.00012207 42.283V36.283H5.99988V30.283H11.9999V24.283H-0.00012207V6.28296H5.99988V0.282959H41.9999V42.283H29.9999V30.283H17.9999V42.283H-0.00012207ZM17.9999 24.283H29.9999V6.28296H11.9999V18.283H17.9999V24.283ZM50.3999 42.283V0.282959H62.3999V18.283H80.3999V0.282959H92.3999V42.283H80.3999V24.283H62.3999V42.283H50.3999ZM100.8 48.283V36.283H106.8V24.283H112.8V0.282959H142.8V36.283H148.8V48.283H136.8V42.283H112.8V48.283H100.8ZM118.8 36.283H130.8V6.28296H118.8V36.283ZM151.2 42.283V0.282959H193.2V6.28296H163.2V18.283H187.2V24.283H163.2V36.283H193.2V42.283H151.2ZM219.6 12.283H225.6V18.283H231.6V24.283H237.6V36.283H243.6V42.283H231.6V36.283H225.6V24.283H213.6V42.283H201.6V0.282959H213.6V18.283H219.6V12.283ZM243.6 0.282959V6.28296H237.6V12.283H225.6V6.28296H231.6V0.282959H243.6ZM264 42.283V36.283H258V30.283H252V12.283H258V6.28296H264V0.282959H288V6.28296H294V12.283H282V6.28296H270V12.283H264V30.283H270V36.283H282V30.283H294V36.283H288V42.283H264ZM314.4 42.283V30.283H326.4V42.283H314.4ZM409.2 42.283V36.283H403.2V6.28296H409.2V0.282959H439.2V6.28296H445.2V36.283H439.2V42.283H409.2ZM415.2 36.283H433.2V6.28296H415.2V36.283ZM453.6 42.283V0.282959H489.6V6.28296H465.6V18.283H489.6V24.283H495.6V36.283H489.6V42.283H453.6ZM465.6 36.283H483.6V24.283H465.6V36.283ZM504 42.283V30.283H510V24.283H516V0.282959H546V42.283H534V6.28296H522V36.283H516V42.283H504ZM554.4 42.283V12.283H560.4V6.28296H566.4V0.282959H584.4V6.28296H590.4V12.283H596.4V42.283H584.4V30.283H566.4V42.283H554.4ZM566.4 24.283H584.4V12.283H578.4V6.28296H572.4V12.283H566.4V24.283ZM622.8 12.283H628.8V18.283H634.8V24.283H640.8V36.283H646.8V42.283H634.8V36.283H628.8V24.283H616.8V42.283H604.8V0.282959H616.8V18.283H622.8V12.283ZM646.8 0.282959V6.28296H640.8V12.283H628.8V6.28296H634.8V0.282959H646.8ZM661.2 42.283V36.283H655.2V6.28296H661.2V0.282959H691.2V6.28296H697.2V36.283H691.2V42.283H661.2ZM667.2 36.283H685.2V6.28296H667.2V36.283Z" fill="#2B2A28"/>
</svg>
