<svg width="285" height="285" viewBox="0 0 285 285" fill="none" xmlns="http://www.w3.org/2000/svg">
<path d="M99.6504 99.6504H186.346V186.346H99.6504V99.6504Z" fill="#F5F5F5"/>
<path fill-rule="evenodd" clip-rule="evenodd" d="M285 142.5C285 221.201 221.201 285 142.5 285C63.7994 285 0 221.201 0 142.5C0 63.7994 63.7994 0 142.5 0C221.201 0 285 63.7994 285 142.5ZM142.5 244.143C198.086 244.143 243.147 199.082 243.147 143.497C243.147 87.9108 198.086 42.8497 142.5 42.8497C86.9143 42.8497 41.8532 87.9108 41.8532 143.497C41.8532 199.082 86.9143 244.143 142.5 244.143Z" fill="#F5F5F5"/>
</svg>
